<svg width="246" height="245" viewBox="0 0 246 245" fill="none" xmlns="http://www.w3.org/2000/svg">
<path d="M86.9078 19.4943C87.4407 19.6718 87.9735 19.8492 88.5224 20.032C93.4708 21.7815 97.5741 24.2583 101.599 27.9477C103.074 28.7354 103.074 28.7354 104.318 29.1735C104.252 29.6919 104.186 30.2103 104.119 30.7444C104.661 31.0274 105.203 31.3103 105.762 31.6018C107.611 32.6671 109.29 33.7727 111.031 35.0284C113.768 36.9698 116.487 38.3068 119.527 39.5601C118.792 40.3729 118.045 41.1716 117.292 41.9643C116.877 42.4106 116.462 42.8569 116.035 43.3166C114.133 44.7543 113.271 45.0052 110.982 44.6329C109.312 43.1942 107.879 41.7972 106.385 40.1597C103.161 36.782 100.105 33.9341 96.1345 31.6745C94.7612 30.8842 94.7612 30.8842 93.4547 29.854C92.0651 28.8155 90.78 28.226 89.2031 27.6127C87.3411 26.8836 85.611 26.1011 83.8302 25.1398C73.2746 20.3203 61.37 21.3191 50.9689 26.0546C43.7379 29.6388 36.7036 35.0781 31.5872 41.8385C31.2147 42.3079 30.8423 42.7773 30.4585 43.261C23.6156 52.5105 20.7234 64.2954 21.3281 76.1488C21.6604 78.9577 22.1015 81.7102 22.5963 84.4884C22.7117 85.3469 22.8272 86.2054 22.9461 87.09C23.8312 93.4521 25.7041 98.7104 28.1435 104.508C28.6501 105.718 29.1532 106.93 29.6531 108.143C30.1526 109.355 30.6603 110.563 31.1767 111.765C32.1653 114.16 32.8832 116.052 33.022 118.702C32.1798 121.134 30.9388 122.198 29.115 123.805C28.5133 124.344 27.9116 124.883 27.2917 125.438C26.826 125.839 26.3603 126.24 25.8805 126.653C24.1094 126.078 23.3127 125.668 22.2416 123.958C21.3707 121.968 20.5033 119.977 19.6602 117.972C19.2019 116.945 19.2019 116.945 18.7343 115.897C17.0135 111.876 16.122 108.901 16.4886 104.36C16.5224 103.632 16.5562 102.904 16.591 102.154C16.6319 101.473 16.6727 100.792 16.7148 100.09C16.8856 96.6401 16.7924 93.3454 16.4509 89.9142C16.3635 88.3204 16.3635 88.3204 16.7612 85.1786C16.2963 85.1059 15.8313 85.0333 15.3522 84.9584C15.2988 84.217 15.2454 83.4755 15.1904 82.7116C15.1187 81.7484 15.0471 80.7852 14.9733 79.7929C14.9029 78.834 14.8326 77.8751 14.7601 76.8872C14.6219 74.5155 14.6219 74.5155 14.0254 72.7362C14.6077 63.2577 15.6382 53.2561 19.7183 44.7898C20.1832 44.8625 20.6482 44.9351 21.1273 45.01C21.3049 44.4265 21.4825 43.843 21.6654 43.2418C22.3289 41.1928 22.3289 41.1928 23.3317 38.9465C23.7967 39.0191 24.2617 39.0918 24.7408 39.1667C24.868 38.6155 24.9951 38.0644 25.1262 37.4966C27.4042 31.5043 33.8452 26.7929 38.905 23.758C39.95 23.1299 39.95 23.1299 41.0161 22.4891C46.7376 19.2314 52.5975 16.2857 59.1202 17.3049C59.1858 16.7865 59.2514 16.2681 59.319 15.734C68.8491 14.9541 77.8063 16.4503 86.9078 19.4943Z" fill="#BB8A52" fill-opacity="0.2"/>
<path d="M92.4774 14.8282C93.1886 15.1437 93.8997 15.4592 94.6325 15.7843C103.337 19.8734 110.619 26.6883 117.082 34.2645C118.728 35.8765 119.867 36.5135 121.996 37.0594C122.593 36.9667 123.19 36.8741 123.805 36.7787C125.618 36.824 125.618 36.824 127.358 38.5099C128.206 39.6273 128.206 39.6273 129.07 40.7673C131.449 43.8738 131.449 43.8738 134.159 46.6024C135.819 48.1207 136.796 49.5935 137.936 51.6134C138.285 52.2224 138.634 52.8314 138.994 53.4588C139.835 55.0638 139.835 55.0638 140.341 56.7447C139.211 56.304 138.081 55.8633 136.917 55.4092C136.983 54.8908 137.049 54.3724 137.116 53.8382C136.651 53.7656 136.186 53.693 135.707 53.6182C135.773 53.0998 135.838 52.5814 135.906 52.0473C135.441 51.9747 134.976 51.902 134.497 51.8272C134.199 52.3093 133.901 52.7914 133.594 53.2882C133.659 52.7697 133.725 52.2513 133.792 51.7172C133.252 51.4181 132.712 51.119 132.156 50.8108C131.599 50.41 131.042 50.0092 130.468 49.5962C130.334 48.7823 130.2 47.9683 130.062 47.1298C129.597 47.0571 129.132 46.9845 128.653 46.9097C127.764 45.3693 127.764 45.3693 126.848 43.424C126.543 42.7815 126.237 42.1391 125.922 41.4771C125.69 40.9784 125.459 40.4797 125.22 39.9659C123.613 40.5683 122.621 41.3955 121.3 42.5576C120.668 41.9303 120.036 41.303 119.385 40.6567C118.919 41.1786 118.453 41.7005 117.973 42.2383C116.124 44.0904 114.287 45.3436 112.15 46.7357C110.313 48.7918 110.313 48.7918 109.473 51.5741C108.339 54.1504 108.339 54.1504 106.906 54.8277C106.383 54.9774 105.86 55.127 105.322 55.2812C104.756 55.8868 104.191 56.4923 103.608 57.1162C103.08 57.6614 102.551 58.2067 102.007 58.7685C101.309 58.6596 100.612 58.5507 99.8934 58.4385C98.8972 59.607 97.9056 60.7808 96.9417 61.9825C95.1318 63.9891 93.0729 65.3826 90.921 66.8932C86.2669 70.0925 86.2669 70.0925 83.4182 75.0894C81.9228 75.9072 81.9228 75.9072 80.4014 76.2203C79.9692 75.8884 79.537 75.5566 79.0917 75.2148C78.6672 76.4618 78.6672 76.4618 78.2342 77.7341C76.8944 80.6982 76.4619 81.1132 73.8709 82.4093C71.1033 84.51 71.1033 84.51 68.9421 87.2966C67.6761 89.2892 66.0074 90.0718 64.125 91.3002C61.254 93.886 59.3076 96.0701 58.001 99.9558C58.1351 100.77 58.2693 101.584 58.4075 102.422C57.4104 101.87 57.4104 101.87 56.3932 101.307C54.9296 102.04 54.9296 102.04 53.5034 103.208C53.0085 103.584 52.5137 103.96 52.0038 104.348C51.6281 104.645 51.2524 104.943 50.8654 105.249C50.9995 106.063 51.1336 106.877 51.2719 107.716C50.873 107.472 50.4741 107.228 50.0632 106.976C48.5607 106.3 48.5607 106.3 47.2146 107.132C45.9446 108.501 45.9446 108.501 45.9438 110.789C45.5453 113.229 45.5453 113.229 43.4983 115.213C42.8474 115.673 42.1965 116.133 41.5259 116.607C41.423 114.608 41.423 114.608 41.3181 112.569C40.7875 113.015 40.257 113.461 39.7103 113.92C39.0456 113.552 38.3809 113.184 37.6961 112.805C38.3134 112.252 38.9307 111.699 39.5667 111.129C43.5127 107.573 47.416 104.016 51.1086 100.131C54.9066 96.1484 58.9368 92.5317 62.9957 88.8899C64.8075 87.2629 66.5887 85.6074 68.3391 83.8984C71.2358 81.0705 74.2213 78.3685 77.2071 75.6591C79.7024 73.3923 82.1715 71.0967 84.6218 68.7693C88.0497 65.5379 91.6181 62.5563 95.232 59.591C97.1548 58.0298 97.1548 58.0298 98.7823 55.862C99.2473 55.9346 99.7123 56.0072 100.191 56.082C100.405 55.6713 100.618 55.2606 100.837 54.8375C102.347 52.6558 104.113 51.303 106.118 49.6985C107.447 48.6349 108.759 47.5445 110.037 46.4057C110.102 45.8873 110.168 45.3689 110.235 44.8347C111.505 44.2211 112.779 43.621 114.056 43.0284C115.141 42.1476 116.215 41.2496 117.272 40.3266C116.237 39.7732 116.237 39.7732 115.182 39.2087C114.267 38.7125 113.352 38.2161 112.438 37.7194C111.984 37.4778 111.531 37.2361 111.064 36.9871C108.422 35.5452 106.208 34.0153 103.976 31.8425C103.544 31.5107 103.111 31.1789 102.666 30.837C102.732 30.3186 102.797 29.8002 102.865 29.266C102.396 29.1102 101.926 28.9543 101.443 28.7937C99.4997 27.9556 97.8485 26.8777 96.08 25.6628C84.6926 17.975 70.9475 16.2933 57.8649 15.8311C57.7993 16.3495 57.7337 16.868 57.6662 17.4021C56.8577 17.5484 56.0492 17.6947 55.2162 17.8455C48.2578 19.2 42.5929 21.0601 36.5483 25.3182C35.697 25.8651 35.697 25.8651 34.8285 26.4232C30.1774 29.5389 25.7339 33.7886 23.2887 39.2673C22.8237 39.1947 22.3587 39.1221 21.8796 39.0472C21.7021 39.6308 21.5246 40.2143 21.3417 40.8155C20.6784 42.8646 20.6784 42.8646 19.6758 45.111C19.2108 45.0384 18.7458 44.9657 18.2667 44.8909C18.1629 45.3672 18.0591 45.8435 17.9522 46.3343C17.8129 46.9599 17.6736 47.5856 17.53 48.2301C17.3933 48.85 17.2565 49.4698 17.1156 50.1084C16.668 51.8501 16.668 51.8502 15.6654 54.0965C15.0979 57.1081 14.7327 60.1559 14.3343 63.2001C14.2149 64.0271 14.0955 64.8541 13.9724 65.7061C13.3645 70.3464 13.2071 74.2261 14.2183 78.7959C14.616 80.9826 14.331 82.9008 13.9043 85.0599C14.3693 85.1325 14.8343 85.2052 15.3134 85.28C16.0268 92.1956 16.6241 99.2319 15.5484 106.142C14.7525 106.811 14.7525 106.811 13.9406 107.493C8.17677 87.8636 3.82917 66.1739 12.408 46.4791C16.1041 38.853 20.5803 32.758 26.2874 26.9198C27.0922 26.0047 27.0922 26.0047 27.9132 25.0711C46.0707 7.45634 70.6987 3.88015 92.4774 14.8282Z" fill="#BB8A52" fill-opacity="0.2"/>
<path d="M92.429 15.0503C93.1401 15.3659 93.8513 15.6814 94.584 16.0065C103.288 20.0966 110.569 26.9122 117.031 34.4891C118.678 36.1013 119.816 36.7384 121.945 37.2844C122.542 37.1919 123.139 37.0993 123.754 37.004C125.567 37.0494 125.567 37.0494 127.307 38.7356C128.155 39.8531 128.155 39.8531 129.02 40.9931C131.408 44.109 131.408 44.109 134.124 46.8502C135.701 48.286 136.563 49.5672 137.614 51.4975C140.393 56.413 143.453 60.9823 146.903 65.3362C148.826 67.8018 150.588 70.3409 152.302 72.9915C152.761 73.6993 153.22 74.4071 153.693 75.1363C154.638 76.6035 155.576 78.0769 156.507 79.556C156.964 80.2552 157.422 80.9545 157.893 81.6749C158.502 82.6289 158.502 82.6289 159.123 83.6021C160.369 85.1368 160.369 85.1368 162.17 85.1401C164.282 84.6739 166.171 83.9928 168.184 83.1391C168.981 82.805 169.778 82.4709 170.599 82.1266C171.446 81.7656 172.293 81.4046 173.166 81.0327C174.494 80.4763 175.821 79.9198 177.149 79.3646C178.048 78.9887 178.946 78.6123 179.845 78.2352C184.083 76.4561 188.332 74.7165 192.592 73.0046C193.223 72.747 193.854 72.4895 194.504 72.2242C204.667 68.1511 204.667 68.1511 209.133 69.3314C208.032 89.715 199.155 120.183 185.6 134.518C183.321 136.767 180.998 138.951 178.653 141.114C177.078 142.568 175.525 144.044 173.981 145.54C171.263 148.169 168.508 150.745 165.745 153.315C164.188 154.779 162.649 156.261 161.114 157.754C157.338 161.396 153.417 164.832 149.501 168.285C148.667 169.026 148.667 169.026 147.816 169.781C147.314 170.223 146.812 170.666 146.295 171.123C145.041 172.215 145.041 172.215 144.19 173.726C154.775 177.526 165.368 179.686 176.357 181.406C177.016 181.511 177.675 181.617 178.355 181.726C180.258 182.028 182.163 182.317 184.069 182.601C184.641 182.691 185.212 182.781 185.802 182.874C191.113 183.63 194.675 182.767 199.302 179.634C203.529 176.864 207.83 174.312 212.226 171.892C212.806 171.562 213.386 171.233 213.983 170.893C217.464 169.002 219.995 168.091 223.875 168.556C225.261 170.607 223.993 175.057 223.689 177.531C222.623 185.281 220.937 192.868 219.251 200.474C219.109 201.124 218.967 201.774 218.821 202.444C218.407 204.334 217.981 206.22 217.552 208.106C217.429 208.668 217.306 209.231 217.179 209.811C216.257 213.765 214.839 216.993 212.986 220.521C209.494 219.587 207.278 217.866 204.677 215.218C204.294 214.841 203.911 214.465 203.516 214.077C201.485 212.08 199.483 210.049 197.487 208.008C197.096 207.616 196.704 207.224 196.301 206.82C195.556 206.073 194.817 205.315 194.089 204.547C191.423 201.887 189.504 201.405 185.99 201.084C184.042 201.21 182.156 201.387 180.224 201.647C179.679 201.714 179.134 201.781 178.573 201.851C176.838 202.066 175.104 202.29 173.37 202.516C171.107 202.804 168.843 203.088 166.58 203.37C166.022 203.44 165.464 203.51 164.889 203.583C160.161 204.167 155.426 204.599 150.68 204.963C148.118 204.97 148.118 204.97 145.849 206.025C143.953 206.112 142.067 206.161 140.17 206.189C134.857 206.299 129.577 206.573 124.283 207.107C121.38 207.378 118.69 207.461 115.796 207.055C106.72 205.999 101.496 210.02 94.665 216.142C92.8852 217.762 91.1265 219.404 89.3836 221.072C87.7146 222.573 87.7146 222.573 85.4022 223.814C81.3763 222.781 78.5194 218.253 75.7292 215.093C75.2103 214.506 75.2103 214.506 74.681 213.906C69.9138 208.485 65.3146 202.918 60.8031 197.232C59.0646 195.044 57.2907 192.896 55.5047 190.756C49.6874 183.758 44.0575 176.575 38.5827 169.242C37.3459 167.593 36.0909 165.966 34.8243 164.346C29.9915 158.117 25.3186 151.759 20.8588 145.193C20.5454 144.733 20.232 144.273 19.909 143.8C17.1495 139.698 17.1495 139.698 17.154 136.504C17.8683 133.422 18.9898 132.276 21.0942 130.229C22.1081 129.06 22.1081 129.06 21.95 127.492C21.6376 125.613 21.1155 124.246 20.3349 122.548C19.9208 121.629 19.9208 121.629 19.4984 120.69C19.2014 120.036 18.9044 119.381 18.5984 118.707C14.3151 108.981 10.7898 99.2268 8.8047 88.5909C8.70399 88.0521 8.60328 87.5134 8.49953 86.9582C5.73156 70.5112 8.31649 53.1882 16.4005 39.1367C19.2485 34.6216 22.5999 30.8561 26.238 27.1352C27.0429 26.2201 27.0429 26.2201 27.864 25.2866C46.023 7.67369 70.6513 4.1 92.429 15.0503Z" fill="#BB8A52" fill-opacity="0.1"/>
<path d="M87.7529 25.5269C89.1149 26.1114 90.4783 26.6917 91.8433 27.2674C95.2579 28.7927 97.6444 30.4892 100.443 33.1168C101.152 33.5715 101.861 34.0262 102.592 34.4946C105.346 36.3199 107.528 38.6411 109.8 41.1372C110.404 41.7882 110.404 41.7882 111.019 42.4524C111.998 43.5106 112.972 44.5745 113.945 45.6397C111.338 48.2106 108.726 50.7757 106.102 53.3252C105.662 53.7541 105.221 54.1829 104.767 54.6248C102.983 56.2804 101.138 57.821 99.2755 59.3673C97.1655 61.1214 95.0578 62.8786 92.9506 64.6368C92.4032 65.0907 91.8558 65.5447 91.2918 66.0124C88.0988 68.6815 85.0291 71.4488 82.0281 74.3816C80.0287 76.3242 77.9719 78.1845 75.9124 80.0468C69.6574 85.7333 63.4999 91.5182 57.4625 97.4899C54.2242 100.683 50.9076 103.757 47.566 106.816C44.8939 109.339 42.357 112.009 39.8286 114.709C38.3024 116.189 36.8747 117.225 35.0677 118.22C32.1609 112.329 29.5282 106.429 27.2923 100.184C26.939 99.2728 26.5857 98.3616 26.2217 97.4228C24.9978 93.9884 24.4119 90.5141 23.8571 86.8813C23.7048 85.9445 23.7048 85.9445 23.5494 84.9887C21.1968 70.1703 22.7473 57.4539 30.2593 44.6842C33.4498 39.9915 37.4034 36.2976 41.5783 32.7296C42.133 32.2545 42.6877 31.7795 43.2592 31.2901C56.1084 21.0413 73.2456 17.7118 87.7529 25.5269Z" fill="#FBFDF8"/>
<path d="M204.157 86.4939C204.622 86.5666 205.087 86.6392 205.566 86.7141C205.065 92.4094 203.867 97.3644 201.975 102.673C201.721 103.398 201.468 104.122 201.207 104.868C195.987 119.587 190.531 130.576 179.487 140.761C177.911 142.216 176.358 143.692 174.815 145.188C172.097 147.816 169.341 150.392 166.579 152.962C165.017 154.431 163.471 155.916 161.929 157.411C158.806 160.422 155.613 163.33 152.396 166.215C151.849 166.71 151.303 167.205 150.741 167.715C147.414 170.699 144.038 173.364 140.399 175.855C140.265 170.527 140.265 170.527 141.393 168C142.914 167.687 142.914 167.687 144.31 167.655C144.674 166.654 145.038 165.654 145.412 164.623C146.342 164.768 147.272 164.914 148.231 165.063C148.448 164.635 148.665 164.206 148.889 163.765C150.322 161.74 151.977 160.85 153.958 159.55C154.454 158.438 154.454 158.438 154.96 157.304C156.519 156.318 156.519 156.318 158.391 155.387C160.279 154.439 161.849 153.623 163.506 152.231C164.203 152.34 164.901 152.449 165.619 152.562C165.739 151.993 165.859 151.424 165.983 150.838C167.074 148.112 168.346 147.339 170.608 145.782C175.738 142.144 175.738 142.144 179.783 137.153C180.248 137.226 180.713 137.298 181.192 137.373C181.738 135.872 181.738 135.872 182.295 134.341C182.992 134.45 183.69 134.559 184.408 134.672C184.507 133.894 184.605 133.117 184.706 132.315C185.171 132.388 185.636 132.461 186.115 132.536C186.247 131.499 186.378 130.462 186.513 129.394C186.978 129.466 187.443 129.539 187.922 129.614C188.086 128.318 188.25 127.022 188.419 125.687C187.755 125.318 187.09 124.95 186.405 124.571C185.407 123.104 185.407 123.104 184.394 121.303C184.034 120.668 183.673 120.034 183.302 119.38C182.443 117.83 181.589 116.278 180.736 114.724C179.377 112.236 179.377 112.236 177.792 109.958C176.365 107.846 175.204 105.681 173.996 103.408C172.446 100.995 171.047 99.0053 169.056 97.0289C169.122 96.5105 169.187 95.9921 169.255 95.458C168.391 94.7943 167.526 94.1306 166.636 93.4467C166.701 92.9283 166.767 92.4099 166.835 91.8758C168.878 92.5916 168.878 92.5916 170.962 93.3218C170.897 93.8402 170.831 94.3586 170.763 94.8927C173.197 95.185 175.631 95.4607 178.066 95.7335C179.103 95.8583 179.103 95.8583 180.16 95.9856C180.825 96.0585 181.489 96.1313 182.174 96.2064C182.786 96.2768 183.398 96.3473 184.028 96.4199C185.841 96.5503 185.841 96.5503 187.97 95.1785C190.058 94.8653 192.143 94.6622 194.241 94.4594C194.828 94.3187 195.414 94.178 196.018 94.0331C196.349 93.2918 196.68 92.5505 197.021 91.7868C200.372 89.9075 200.372 89.9075 202.251 90.201C202.88 88.9777 203.509 87.7543 204.157 86.4939Z" fill="#BB8A52" fill-opacity="0.2"/>
<path d="M224.909 167.504C226.295 169.556 225.027 174.005 224.724 176.48C223.657 184.229 221.971 191.817 220.285 199.422C220.072 200.398 220.072 200.398 219.855 201.393C219.441 203.282 219.016 205.169 218.586 207.054C218.463 207.617 218.34 208.18 218.214 208.76C217.292 212.714 215.873 215.941 214.02 219.47C211.988 218.852 211.988 218.852 209.893 218.024C209.726 217.469 209.559 216.914 209.387 216.343C211.014 216.597 212.642 216.851 214.319 217.113C214.385 216.525 214.451 215.936 214.519 215.33C214.611 214.555 214.702 213.781 214.797 212.983C214.885 212.216 214.974 211.449 215.065 210.659C215.37 208.741 215.784 207.2 216.515 205.441C216.98 205.514 217.445 205.587 217.924 205.662C218.416 201.774 218.908 197.886 219.415 193.88C218.452 193.994 217.489 194.107 216.497 194.225C216.166 194.966 215.836 195.707 215.495 196.471C215.03 196.398 214.565 196.326 214.086 196.251C214.02 196.769 213.954 197.288 213.887 197.822C209.702 200.123 206.738 200.686 202.217 199.202C198.195 196.91 196.266 193.561 194.673 188.912C194.567 188.466 194.46 188.02 194.35 187.56C192.955 187.342 191.56 187.124 190.123 186.9C190.62 185.788 190.62 185.788 191.126 184.653C190.725 184.602 190.324 184.552 189.91 184.499C185.735 183.969 181.561 183.432 177.387 182.893C175.829 182.692 174.271 182.493 172.712 182.295C170.473 182.011 168.234 181.721 165.995 181.43C165.298 181.343 164.601 181.256 163.883 181.166C163.232 181.08 162.582 180.995 161.911 180.907C161.34 180.833 160.768 180.76 160.18 180.684C158.619 180.375 158.619 180.375 157.175 179.676C155.785 178.922 155.785 178.922 153.952 179.996C149.186 181.566 144.09 180.07 139.497 178.188C140.442 175.931 141.404 174.48 143.055 172.786C146.024 171.612 147.289 172.367 150.123 173.662C158.179 177.201 166.43 178.644 174.962 179.933C176.973 180.239 178.981 180.561 180.989 180.885C182.279 181.086 183.569 181.285 184.859 181.484C185.75 181.628 185.75 181.628 186.659 181.775C192.056 182.57 195.627 181.771 200.336 178.583C204.615 175.758 208.995 173.264 213.481 170.875C214.09 170.55 214.699 170.225 215.327 169.89C221.3 166.729 221.3 166.729 224.909 167.504Z" fill="#BB8A52" fill-opacity="0.2"/>
</svg>
