<svg width="232" height="215" viewBox="0 0 232 215" fill="none" xmlns="http://www.w3.org/2000/svg">
<path d="M72.9103 9.53907C73.4626 9.6406 74.015 9.74213 74.584 9.84674C79.7277 10.8906 84.1358 12.7722 88.635 15.8655C90.2049 16.4404 90.2049 16.4404 91.4978 16.701C91.5049 17.2235 91.5121 17.746 91.5195 18.2843C92.0957 18.4891 92.6719 18.6938 93.2655 18.9048C95.2452 19.7023 97.0617 20.5635 98.9602 21.5647C101.942 23.1062 104.82 24.0519 108.005 24.8698C107.39 25.777 106.761 26.672 106.126 27.5616C105.778 28.0613 105.429 28.561 105.069 29.0758C103.386 30.7642 102.567 31.1327 100.249 31.0824C98.395 29.8902 96.7811 28.7062 95.0736 27.2927C91.4112 24.3965 87.9887 22.0016 83.7424 20.3166C82.2724 19.7251 82.2724 19.7251 80.8352 18.8867C79.3146 18.0517 77.96 17.6469 76.3131 17.2589C74.3678 16.7961 72.5456 16.262 70.6483 15.5579C59.5247 12.2544 47.8749 14.9002 38.2342 21.0372C31.5723 25.5928 25.3635 31.9582 21.2377 39.3649C20.9342 39.8816 20.6307 40.3983 20.318 40.9306C14.8289 51.0425 13.605 63.1152 15.8536 74.7691C16.5735 77.5044 17.3934 80.1687 18.27 82.851C18.5038 83.6851 18.7377 84.5192 18.9786 85.3786C20.7404 91.5557 23.3269 96.5021 26.5494 101.903C27.2195 103.031 27.8864 104.161 28.5503 105.294C29.2136 106.424 29.8844 107.549 30.5632 108.668C31.8755 110.903 32.8497 112.676 33.3559 115.281C32.8604 117.806 31.7796 119.033 30.1971 120.877C29.6762 121.495 29.1554 122.112 28.6188 122.748C28.2135 123.211 27.8082 123.673 27.3906 124.149C25.5567 123.826 24.7106 123.531 23.4119 121.986C22.2725 120.136 21.1366 118.286 20.0225 116.417C19.4257 115.464 19.4257 115.464 18.8168 114.491C16.5532 110.749 15.2564 107.927 14.9874 103.379C14.9196 102.654 14.8517 101.928 14.7818 101.181C14.7275 100.501 14.6731 99.8202 14.6171 99.1193C14.3061 95.6793 13.7553 92.4296 12.9396 89.0793C12.6313 87.5132 12.6313 87.5132 12.5878 84.3466C12.1173 84.3394 11.6467 84.3321 11.1619 84.3247C11.0058 83.5979 10.8497 82.8711 10.6889 82.1223C10.4839 81.1784 10.2789 80.2346 10.0677 79.2621C9.86461 78.3224 9.66151 77.3826 9.45225 76.4144C8.98529 74.085 8.98529 74.085 8.14702 72.406C7.40447 62.9387 7.03294 52.8911 9.89505 43.9393C10.3656 43.9466 10.8362 43.9538 11.321 43.9613C11.4157 43.3587 11.5103 42.7562 11.6078 42.1354C11.9797 40.014 11.9797 40.014 12.6601 37.65C13.1307 37.6572 13.6013 37.6645 14.0861 37.6719C14.1353 37.1085 14.1846 36.545 14.2353 35.9645C15.6572 29.7134 21.3798 24.1514 25.968 20.442C26.9154 19.6745 26.9154 19.6745 27.882 18.8915C33.0944 14.8693 38.4873 11.1367 45.0884 11.2382C45.0812 10.7157 45.074 10.1932 45.0667 9.65492C54.3954 7.55626 63.4737 7.79133 72.9103 9.53907Z" fill="#BB8A52" fill-opacity="0.2"/>
<path d="M77.7763 4.14307C78.5244 4.35651 79.2726 4.56996 80.0435 4.78987C89.2322 7.62782 97.3915 13.363 104.846 19.9659C106.701 21.3331 107.917 21.8054 110.101 22.0497C110.68 21.8749 111.258 21.7001 111.854 21.52C113.655 21.3125 113.655 21.3125 115.613 22.7399C116.608 23.7284 116.608 23.7284 117.623 24.737C120.411 27.4821 120.411 27.4821 123.474 29.8072C125.33 31.0796 126.502 32.402 127.912 34.2436C128.343 34.7981 128.773 35.3525 129.217 35.9238C130.273 37.3962 130.273 37.3962 131.008 38.9904C129.828 38.7111 128.647 38.4319 127.432 38.1442C127.424 37.6217 127.417 37.0992 127.41 36.5609C126.939 36.5537 126.469 36.5465 125.984 36.5391C125.977 36.0166 125.969 35.4942 125.962 34.9558C125.491 34.9486 125.021 34.9414 124.536 34.934C124.308 35.4529 124.08 35.9718 123.845 36.5064C123.838 35.984 123.83 35.4615 123.823 34.9231C123.247 34.7021 122.67 34.4811 122.076 34.2534C121.469 33.9339 120.862 33.6145 120.236 33.2854C119.99 32.498 119.744 31.7107 119.49 30.8995C119.02 30.8923 118.549 30.8851 118.064 30.8777C116.97 29.4759 116.97 29.4759 115.793 27.6771C115.4 27.0834 115.008 26.4897 114.604 25.8781C114.305 25.4164 114.007 24.9548 113.699 24.4791C112.191 25.2994 111.324 26.2566 110.178 27.5913C109.465 27.058 108.752 26.5247 108.017 25.9753C107.628 26.557 107.239 27.1387 106.838 27.7381C105.265 29.8295 103.621 31.3261 101.698 33.0021C100.165 35.2939 100.165 35.2939 99.7204 38.166C98.9558 40.8751 98.9558 40.8751 97.6313 41.7452C97.1344 41.9662 96.6376 42.1871 96.1257 42.4148C95.6499 43.0931 95.1741 43.7715 94.6839 44.4704C94.2366 45.0839 93.7893 45.6974 93.3284 46.3295C92.6226 46.3187 91.9167 46.3079 91.1895 46.2968C90.3657 47.5926 89.547 48.893 88.7598 50.2171C87.2468 52.4561 85.4019 54.1226 83.4811 55.918C79.3176 59.7338 79.3176 59.7338 77.192 65.0786C75.825 66.0965 75.825 66.0965 74.3619 66.6183C73.8878 66.3499 73.4136 66.0814 72.925 65.8049C72.6782 67.0989 72.6782 67.0989 72.4265 68.419C71.5123 71.5408 71.1417 72.0118 68.7564 73.656C66.308 76.1215 66.308 76.1215 64.5557 79.1817C63.5793 81.331 62.0358 82.3382 60.3426 83.8168C57.8595 86.7769 56.236 89.2107 55.4829 93.2403C55.729 94.0277 55.9751 94.815 56.2287 95.6262C55.1645 95.2182 55.1645 95.2182 54.0788 94.8019C52.7315 95.7321 52.7315 95.7321 51.4817 97.0872C51.044 97.5284 50.6063 97.9696 50.1553 98.4242C49.8247 98.7711 49.4941 99.1181 49.1534 99.4755C49.3995 100.263 49.6457 101.05 49.8992 101.861C49.4703 101.675 49.0413 101.489 48.5994 101.297C47.0173 100.836 47.0173 100.836 45.8002 101.848C44.7331 103.381 44.7331 103.381 45.0507 105.646C44.9957 108.118 44.9957 108.118 43.2447 110.367C42.6641 110.913 42.0836 111.459 41.4855 112.022C41.1055 110.057 41.1055 110.057 40.7178 108.053C40.2545 108.568 39.7911 109.084 39.3137 109.614C38.6042 109.342 37.8948 109.07 37.1638 108.79C37.6981 108.157 38.2324 107.523 38.7829 106.87C42.1957 102.8 45.566 98.7339 48.682 94.3731C51.8887 89.9007 55.3763 85.7583 58.889 81.587C60.4566 79.7237 61.9901 77.8364 63.4857 75.9005C65.9606 72.697 68.541 69.6057 71.1206 66.5071C73.2762 63.9152 75.4017 61.2982 77.5043 58.6525C80.4491 54.9754 83.5679 51.5262 86.7339 48.0868C88.4207 46.2732 88.4207 46.2732 89.7307 43.9C90.2013 43.9072 90.6718 43.9144 91.1567 43.9218C91.3105 43.4855 91.4644 43.0491 91.6229 42.5995C92.8144 40.2289 94.3746 38.6436 96.137 36.7756C97.3048 35.5375 98.4528 34.275 99.5595 32.9694C99.5523 32.4469 99.5451 31.9244 99.5376 31.3861C100.709 30.6018 101.888 29.8302 103.07 29.0656C104.022 28.0424 104.96 27.0036 105.878 25.9426C104.777 25.5386 104.777 25.5386 103.653 25.1264C102.678 24.7624 101.703 24.3981 100.728 24.0336C100.246 23.8574 99.763 23.6811 99.2658 23.4996C96.4485 22.4394 94.0437 21.2325 91.5308 19.3915C91.0566 19.123 90.5824 18.8546 90.0939 18.578C90.0867 18.0555 90.0794 17.533 90.072 16.9947C89.5856 16.9057 89.0992 16.8166 88.598 16.7249C86.5573 16.1654 84.7721 15.3278 82.8517 14.3708C70.5052 8.34266 56.6599 8.59023 43.6402 9.95335C43.6474 10.4758 43.6547 10.9983 43.6621 11.5367C42.8818 11.7941 42.1016 12.0515 41.2977 12.3167C34.5954 14.6265 29.2446 17.2568 23.8514 22.3147C23.0845 22.9749 23.0845 22.9749 22.3021 23.6483C18.1299 27.3811 14.3211 32.2078 12.6622 37.9735C12.1916 37.9663 11.7211 37.9591 11.2362 37.9517C11.1416 38.5543 11.047 39.1568 10.9496 39.7776C10.5779 41.8991 10.5779 41.8991 9.89771 44.2631C9.42714 44.2559 8.95657 44.2488 8.47173 44.2413C8.43526 44.7275 8.39878 45.2136 8.3612 45.7144C8.3103 46.3534 8.25939 46.9923 8.20694 47.6506C8.15779 48.2834 8.10864 48.9163 8.058 49.5683C7.85713 51.3553 7.85713 51.3553 7.17694 53.7194C7.03404 56.7806 7.09659 59.8496 7.12577 62.9196C7.1226 63.7552 7.11944 64.5908 7.11618 65.4516C7.15991 70.1313 7.54408 73.9952 9.18139 78.3798C9.87954 80.4898 9.86427 82.429 9.74224 84.6266C10.2128 84.6337 10.6834 84.6409 11.1682 84.6483C12.8372 91.3974 14.408 98.2821 14.3044 105.275C13.6094 106.048 13.6094 106.048 12.9003 106.836C4.46064 88.2 -2.86327 67.3265 2.8911 46.6295C5.48984 38.5631 9.07423 31.9045 13.9133 25.3288C14.5829 24.3106 14.5829 24.3106 15.266 23.2718C30.7952 3.30149 54.6858 -3.66744 77.7763 4.14307Z" fill="#BB8A52" fill-opacity="0.2"/>
<path d="M77.7593 4.36971C78.5074 4.58323 79.2556 4.79676 80.0264 5.01675C89.2149 7.85563 97.3736 13.5916 104.828 20.1953C106.683 21.5627 107.899 22.0352 110.083 22.2796C110.661 22.1049 111.239 21.9301 111.835 21.7501C113.637 21.5428 113.637 21.5428 115.594 22.9704C116.589 23.959 116.589 23.959 117.604 24.9677C120.403 27.7208 120.403 27.7208 123.474 30.0573C125.236 31.2597 126.268 32.4084 127.577 34.1737C131.013 38.6546 134.679 42.7537 138.701 46.585C140.949 48.7589 143.047 51.0281 145.113 53.4144C145.666 54.0514 146.219 54.6884 146.789 55.3447C147.93 56.666 149.064 57.9946 150.191 59.3297C150.741 59.9585 151.292 60.5873 151.859 61.2352C152.594 62.0951 152.594 62.0951 153.345 62.9724C154.792 64.3188 154.792 64.3188 156.576 64.0714C158.602 63.3158 160.379 62.3784 162.253 61.2528C162.996 60.8111 163.738 60.3693 164.503 59.9141C165.292 59.4387 166.081 58.9634 166.893 58.4736C168.131 57.7378 169.368 57.002 170.606 56.2673C171.444 55.7701 172.281 55.2722 173.118 54.7738C177.067 52.4222 181.033 50.1081 185.014 47.8199C185.603 47.4771 186.191 47.1343 186.798 46.7811C196.295 41.3333 196.295 41.3333 200.882 41.8805C202.629 62.2189 198.078 93.6259 186.651 109.708C184.707 112.252 182.71 114.739 180.689 117.206C179.331 118.866 177.999 120.544 176.679 122.24C174.353 125.221 171.983 128.156 169.605 131.085C168.267 132.752 166.949 134.434 165.636 136.125C162.404 140.258 158.999 144.206 155.602 148.171C154.879 149.02 154.879 149.02 154.141 149.886C153.706 150.394 153.27 150.903 152.822 151.427C151.732 152.683 151.732 152.683 151.1 154.297C162.111 156.587 172.901 157.252 184.022 157.426C184.69 157.438 185.358 157.451 186.046 157.464C187.973 157.499 189.899 157.52 191.826 157.536C192.405 157.546 192.983 157.555 193.58 157.565C198.945 157.574 202.352 156.224 206.498 152.478C210.298 149.147 214.202 146.021 218.219 143.012C218.747 142.605 219.275 142.198 219.819 141.779C223.004 139.422 225.383 138.167 229.29 138.087C230.948 139.926 230.311 144.509 230.355 147.001C230.377 154.824 229.764 162.572 229.153 170.338C229.103 171.002 229.053 171.666 229.002 172.349C228.854 174.278 228.696 176.205 228.533 178.132C228.489 178.707 228.446 179.281 228.401 179.873C228.038 183.917 227.083 187.311 225.739 191.062C222.151 190.624 219.717 189.227 216.773 186.967C216.341 186.648 215.909 186.328 215.464 186C213.175 184.305 210.91 182.571 208.649 180.829C208.207 180.495 207.765 180.161 207.31 179.817C206.467 179.181 205.631 178.533 204.802 177.874C201.792 175.611 199.825 175.401 196.3 175.571C194.389 175.968 192.546 176.406 190.669 176.932C190.139 177.074 189.609 177.217 189.063 177.363C187.374 177.818 185.689 178.281 184.003 178.746C181.802 179.346 179.6 179.942 177.397 180.537C176.855 180.684 176.312 180.831 175.753 180.983C171.152 182.22 166.524 183.307 161.875 184.327C159.338 184.691 159.338 184.691 157.238 186.051C155.373 186.401 153.512 186.713 151.637 187.004C146.391 187.853 141.2 188.858 136.032 190.125C133.195 190.796 130.543 191.253 127.621 191.254C118.486 191.471 113.873 196.18 107.96 203.194C106.423 205.045 104.91 206.916 103.416 208.811C101.972 210.529 101.972 210.529 99.8551 212.079C95.7247 211.617 92.2655 207.531 89.0626 204.79C88.467 204.28 88.467 204.28 87.8595 203.761C82.3842 199.056 77.0549 194.182 71.796 189.18C69.77 187.255 67.7143 185.375 65.6479 183.505C58.9132 177.384 52.3385 171.055 45.8963 164.555C44.4422 163.094 42.9729 161.658 41.4931 160.229C35.8404 154.733 30.3282 149.088 24.998 143.206C24.6236 142.795 24.2493 142.383 23.8636 141.959C20.5601 138.281 20.5601 138.281 20.1199 135.117C20.3984 131.966 21.3495 130.675 23.1486 128.356C23.9898 127.057 23.9898 127.057 23.615 125.526C23.0443 123.709 22.3369 122.428 21.3277 120.855C20.7896 120.002 20.7896 120.002 20.2407 119.132C19.8555 118.525 19.4703 117.918 19.0735 117.293C13.4782 108.257 8.62976 99.089 5.18371 88.8329C5.009 88.3134 4.83429 87.7939 4.65429 87.2586C-0.375735 71.3568 -0.226847 53.8427 5.82287 38.8028C8.01478 33.9354 10.8095 29.7401 13.8944 25.549C14.5641 24.5308 14.5641 24.5308 15.2473 23.4921C30.7783 3.52336 54.6696 -3.44315 77.7593 4.36971Z" fill="#BB8A52" fill-opacity="0.1"/>
<path d="M74.5868 15.395C76.0169 15.7843 77.4478 16.1692 78.8796 16.5493C82.4733 17.5846 85.0727 18.9324 88.2096 21.145C88.9752 21.4965 89.7409 21.848 90.5298 22.2102C93.5108 23.6345 95.9942 25.6295 98.5923 27.785C99.2802 28.3457 99.2802 28.3457 99.982 28.9178C101.099 29.8294 102.212 30.7474 103.324 31.6668C101.099 34.5755 98.8701 37.4791 96.6264 40.3691C96.2499 40.855 95.8733 41.341 95.4854 41.8417C93.9483 43.7297 92.336 45.512 90.7069 47.3025C88.8616 49.3331 87.019 51.3666 85.177 53.4009C84.6981 53.9266 84.2192 54.4523 83.7258 54.994C80.9353 58.0815 78.2806 61.2491 75.717 64.571C74.0074 66.773 72.2295 68.9014 70.4492 71.0323C65.0465 77.5339 59.754 84.1195 54.6065 90.8733C51.8441 94.4862 48.9877 97.9921 46.1042 101.486C43.8093 104.356 41.6687 107.353 39.5405 110.379C38.2353 112.057 36.9656 113.281 35.3147 114.518C31.6164 109.09 28.1881 103.613 25.1048 97.74C24.6282 96.8869 24.1515 96.0337 23.6604 95.1548C21.9704 91.9241 20.9067 88.5651 19.8517 85.0449C19.5705 84.1384 19.5705 84.1384 19.2836 83.2136C14.8916 68.8667 14.6573 56.0583 20.3189 42.3674C22.8252 37.2764 26.2263 33.0683 29.864 28.9539C30.3472 28.4063 30.8303 27.8587 31.3282 27.2945C42.626 15.3571 59.133 9.67502 74.5868 15.395Z" fill="#FBFDF8"/>
<path d="M198.343 59.5684C198.814 59.5756 199.284 59.5829 199.769 59.5903C200.065 65.3 199.568 70.3736 198.434 75.8942C198.284 76.6466 198.134 77.399 197.979 78.1742C194.858 93.4763 190.985 105.118 181.465 116.741C180.108 118.401 178.775 120.078 177.455 121.775C175.129 124.756 172.759 127.69 170.381 130.619C169.039 132.292 167.715 133.977 166.396 135.672C163.722 139.089 160.966 142.413 158.18 145.717C157.709 146.284 157.237 146.85 156.75 147.433C153.871 150.851 150.899 153.96 147.642 156.933C146.768 151.676 146.768 151.676 147.533 149.016C148.996 148.495 148.996 148.495 150.374 148.269C150.595 147.227 150.816 146.186 151.044 145.113C151.985 145.127 152.926 145.142 153.896 145.157C154.051 144.702 154.207 144.247 154.367 143.779C155.504 141.574 157.02 140.463 158.8 138.9C159.137 137.73 159.137 137.73 159.48 136.536C160.887 135.343 160.887 135.343 162.611 134.161C164.348 132.959 165.789 131.933 167.236 130.324C167.942 130.335 168.648 130.345 169.375 130.357C169.415 129.777 169.455 129.197 169.496 128.599C170.196 125.748 171.349 124.805 173.372 122.948C177.945 118.632 177.945 118.632 181.257 113.127C181.728 113.134 182.198 113.141 182.683 113.149C183.014 111.587 183.014 111.587 183.353 109.993C184.058 110.004 184.764 110.015 185.492 110.026C185.481 109.242 185.47 108.458 185.459 107.651C185.93 107.658 186.4 107.665 186.885 107.673C186.871 106.628 186.856 105.583 186.842 104.506C187.312 104.513 187.783 104.521 188.267 104.528C188.25 103.222 188.232 101.916 188.213 100.57C187.504 100.298 186.794 100.026 186.063 99.7454C184.87 98.4316 184.87 98.4316 183.617 96.7891C183.172 96.2109 182.726 95.6327 182.268 95.037C181.202 93.622 180.139 92.2036 179.079 90.7832C177.387 88.5092 177.387 88.5092 175.501 86.4739C173.793 84.5808 172.342 82.5978 170.83 80.5153C168.959 78.342 167.296 76.5661 165.05 74.886C165.043 74.3635 165.036 73.841 165.028 73.3027C164.08 72.7658 163.132 72.2288 162.155 71.6755C162.148 71.1531 162.14 70.6306 162.133 70.0922C164.256 70.5167 164.256 70.5167 166.422 70.9497C166.429 71.4722 166.436 71.9947 166.443 72.533C168.894 72.4838 171.343 72.418 173.792 72.3492C174.836 72.3286 174.836 72.3286 175.901 72.3075C176.569 72.2871 177.237 72.2668 177.926 72.2459C178.541 72.2305 179.157 72.2151 179.792 72.1992C181.605 72.0761 181.605 72.0761 183.523 70.4213C185.546 69.8206 187.583 69.3292 189.632 68.8364C190.194 68.6155 190.755 68.3946 191.333 68.1669C191.557 67.3868 191.782 66.6067 192.013 65.8029C195.07 63.4755 195.07 63.4755 196.972 63.5047C197.424 62.2058 197.877 60.9068 198.343 59.5684Z" fill="#BB8A52" fill-opacity="0.2"/>
<path d="M230.167 136.902C231.826 138.741 231.189 143.324 231.233 145.816C231.255 153.639 230.642 161.387 230.031 169.153C229.956 170.149 229.956 170.149 229.879 171.164C229.732 173.093 229.573 175.02 229.411 176.947C229.367 177.522 229.324 178.096 229.279 178.688C228.916 182.732 227.961 186.126 226.617 189.877C224.519 189.548 224.519 189.548 222.328 189.02C222.086 188.494 221.843 187.968 221.594 187.426C223.241 187.451 224.888 187.476 226.584 187.502C226.568 186.91 226.552 186.318 226.535 185.709C226.518 184.929 226.501 184.149 226.483 183.346C226.464 182.574 226.445 181.802 226.426 181.007C226.46 179.065 226.656 177.482 227.135 175.639C227.605 175.646 228.076 175.653 228.561 175.661C228.507 171.742 228.453 167.823 228.398 163.786C227.46 164.033 226.523 164.279 225.557 164.534C225.332 165.314 225.108 166.094 224.876 166.898C224.406 166.89 223.935 166.883 223.45 166.876C223.457 167.398 223.465 167.921 223.472 168.459C219.648 171.32 216.791 172.29 212.108 171.45C207.806 169.739 205.429 166.692 203.205 162.31C203.038 161.883 202.87 161.456 202.698 161.016C201.286 160.994 199.874 160.973 198.42 160.95C198.756 159.78 198.756 159.78 199.1 158.586C198.696 158.592 198.291 158.597 197.875 158.603C193.666 158.659 189.458 158.708 185.249 158.755C183.679 158.773 182.108 158.792 180.537 158.814C178.28 158.844 176.023 158.869 173.765 158.892C173.063 158.903 172.36 158.913 171.637 158.924C170.98 158.93 170.324 158.936 169.648 158.942C169.072 158.949 168.496 158.956 167.902 158.963C166.313 158.873 166.313 158.873 164.787 158.382C163.305 157.829 163.305 157.829 161.639 159.148C157.138 161.365 151.883 160.594 147.074 159.369C147.695 157.003 148.446 155.432 149.845 153.525C152.622 151.949 153.98 152.52 156.966 153.408C165.436 155.792 173.808 156.072 182.437 156.162C184.47 156.184 186.503 156.224 188.537 156.266C189.842 156.285 191.148 156.303 192.453 156.32C193.355 156.338 193.355 156.338 194.276 156.357C199.731 156.393 203.156 155.106 207.376 151.293C211.219 147.9 215.21 144.821 219.32 141.831C219.878 141.424 220.436 141.018 221.01 140.599C226.486 136.636 226.486 136.636 230.167 136.902Z" fill="#BB8A52" fill-opacity="0.2"/>
</svg>
