<svg width="1920" height="203" viewBox="0 0 1920 203" fill="none" xmlns="http://www.w3.org/2000/svg">
<path d="M1920 203L1866.67 172.55C1813.33 142.1 1706.67 81.2 1600 74.4122C1493.33 67.8781 1386.67 114.822 1280 115.012C1173.33 114.822 1066.67 67.8781 960 67.6878C853.333 67.8781 746.667 114.822 640 135.312C533.333 155.422 426.667 149.078 320 131.95C213.333 114.822 106.667 88.1781 53.3333 74.4122L-5.72205e-05 60.9V0L53.3333 0C106.667 0 213.333 0 320 0C426.667 0 533.333 0 640 0C746.667 0 853.333 0 960 0C1066.67 0 1173.33 0 1280 0C1386.67 0 1493.33 0 1600 0C1706.67 0 1813.33 0 1866.67 0L1920 0V203Z" fill="#1BD035" fill-opacity="0.1"/>
</svg>
