<svg width="1440" height="203" viewBox="0 0 1440 203" fill="none" xmlns="http://www.w3.org/2000/svg">
<path d="M1440 203L1400 172.55C1360 142.1 1280 81.2 1200 74.4122C1120 67.8781 1040 114.822 960 115.012C880 114.822 800 67.8781 720 67.6878C640 67.8781 560 114.822 480 135.312C400 155.422 320 149.078 240 131.95C160 114.822 80 88.1781 40 74.4122L0 60.9V0L40 0C80 0 160 0 240 0C320 0 400 0 480 0C560 0 640 0 720 0C800 0 880 0 960 0C1040 0 1120 0 1200 0C1280 0 1360 0 1400 0L1440 0V203Z" fill="#1BD035" fill-opacity="0.1"/>
</svg>
