<svg width="90" height="64" viewBox="0 0 90 64" fill="none" xmlns="http://www.w3.org/2000/svg">
<path d="M15 42V2" stroke="#BB8A52" stroke-width="3" stroke-linecap="round"/>
<path d="M27 38V6" stroke="#6D9773" stroke-width="3" stroke-linecap="round"/>
<path d="M39 39.5V4.5" stroke="#FFBA00" stroke-width="3" stroke-linecap="round"/>
<path d="M51 34.5V9.5" stroke="#6D9773" stroke-width="3" stroke-linecap="round"/>
<path d="M63 42V2" stroke="#BB8A52" stroke-width="3" stroke-linecap="round"/>
<path d="M75 40V4" stroke="#0C3E2E" stroke-width="3" stroke-linecap="round"/>
<path d="M4.58828 60.195C3.92962 60.195 3.35328 60.0997 2.85928 59.909C2.36962 59.714 1.95795 59.4648 1.62429 59.1615C1.29495 58.8538 1.04145 58.531 0.863785 58.193L2.20279 57.283C2.30679 57.5213 2.45845 57.751 2.65778 57.972C2.85712 58.1887 3.11929 58.3685 3.44429 58.5115C3.76929 58.6502 4.17228 58.7195 4.65328 58.7195C5.11695 58.7195 5.49612 58.6502 5.79078 58.5115C6.08545 58.3728 6.30212 58.1908 6.44079 57.9655C6.57945 57.7402 6.64879 57.4953 6.64879 57.231C6.64879 56.9017 6.55779 56.6482 6.37579 56.4705C6.19378 56.2885 5.95545 56.1628 5.66079 56.0935C5.36612 56.0198 5.05195 55.9787 4.71828 55.97C4.41495 55.9613 4.19612 55.9548 4.06178 55.9505C3.92745 55.9462 3.83862 55.944 3.79528 55.944C3.75195 55.944 3.71078 55.944 3.67178 55.944V54.462C3.71945 54.462 3.79962 54.462 3.91228 54.462C4.02928 54.462 4.14845 54.462 4.26978 54.462C4.39545 54.4577 4.49729 54.4533 4.57528 54.449C5.06928 54.4273 5.47445 54.3125 5.79078 54.1045C6.11145 53.8965 6.27178 53.5888 6.27178 53.1815C6.27178 52.7872 6.12228 52.4773 5.82328 52.252C5.52862 52.0267 5.13645 51.914 4.64679 51.914C4.18745 51.914 3.78229 52.0158 3.43129 52.2195C3.08462 52.4232 2.82245 52.6637 2.64478 52.941L1.54629 51.823C1.86262 51.4373 2.29162 51.1123 2.83329 50.848C3.37929 50.5793 3.99895 50.445 4.69228 50.445C5.09962 50.445 5.49612 50.4992 5.88178 50.6075C6.26745 50.7115 6.61412 50.8718 6.92178 51.0885C7.22945 51.3052 7.47428 51.5825 7.65629 51.9205C7.83828 52.2585 7.92928 52.6615 7.92928 53.1295C7.92928 53.5585 7.84695 53.955 7.68228 54.319C7.52195 54.6787 7.29662 54.9733 7.00629 55.203C7.41795 55.3677 7.73645 55.619 7.96178 55.957C8.19145 56.295 8.30628 56.7218 8.30628 57.2375C8.30628 57.8442 8.14162 58.3685 7.81228 58.8105C7.48295 59.2525 7.03662 59.5948 6.47328 59.8375C5.91428 60.0758 5.28595 60.195 4.58828 60.195ZM12.9072 60.195C12.1965 60.195 11.5725 60.0412 11.0352 59.7335C10.4978 59.4258 10.0775 58.999 9.77417 58.453C9.47517 57.907 9.32567 57.2787 9.32567 56.568C9.32567 55.801 9.473 55.1358 9.76767 54.5725C10.0623 54.0048 10.4718 53.565 10.9962 53.253C11.5205 52.941 12.1272 52.785 12.8162 52.785C13.5442 52.785 14.1617 52.9562 14.6687 53.2985C15.18 53.6365 15.5592 54.1153 15.8062 54.735C16.0532 55.3547 16.1463 56.0848 16.0857 56.9255H14.5322V56.3535C14.5278 55.5908 14.3935 55.034 14.1292 54.683C13.8648 54.332 13.4488 54.1565 12.8812 54.1565C12.2398 54.1565 11.7632 54.3558 11.4512 54.7545C11.1392 55.1488 10.9832 55.7273 10.9832 56.49C10.9832 57.2007 11.1392 57.751 11.4512 58.141C11.7632 58.531 12.2182 58.726 12.8162 58.726C13.2018 58.726 13.5333 58.6415 13.8107 58.4725C14.0923 58.2992 14.309 58.05 14.4607 57.725L16.0077 58.193C15.739 58.8257 15.323 59.3175 14.7597 59.6685C14.2007 60.0195 13.5832 60.195 12.9072 60.195ZM10.4892 56.9255V55.7425H15.3187V56.9255H10.4892ZM16.886 60V58.687C17.1416 58.7347 17.3388 58.7303 17.4775 58.674C17.6161 58.6133 17.7201 58.5007 17.7895 58.336C17.8588 58.1713 17.9195 57.9525 17.9715 57.6795C18.0408 57.2938 18.1015 56.8497 18.1535 56.347C18.2098 55.8443 18.2575 55.307 18.2965 54.735C18.3398 54.163 18.3788 53.578 18.4135 52.98H23.581V60H22.021V54.449H19.7915C19.7698 54.7307 19.7438 55.047 19.7135 55.398C19.6831 55.7447 19.6506 56.0957 19.616 56.451C19.5813 56.8063 19.5423 57.1443 19.499 57.465C19.46 57.7813 19.4188 58.0522 19.3755 58.2775C19.2758 58.7845 19.1328 59.1853 18.9465 59.48C18.7645 59.7747 18.5088 59.9632 18.1795 60.0455C17.8501 60.1322 17.419 60.117 16.886 60ZM28.5986 60.195C27.8879 60.195 27.2639 60.0412 26.7266 59.7335C26.1892 59.4258 25.7689 58.999 25.4656 58.453C25.1666 57.907 25.0171 57.2787 25.0171 56.568C25.0171 55.801 25.1644 55.1358 25.4591 54.5725C25.7537 54.0048 26.1632 53.565 26.6876 53.253C27.2119 52.941 27.8186 52.785 28.5076 52.785C29.2356 52.785 29.8531 52.9562 30.3601 53.2985C30.8714 53.6365 31.2506 54.1153 31.4976 54.735C31.7446 55.3547 31.8377 56.0848 31.7771 56.9255H30.2236V56.3535C30.2192 55.5908 30.0849 55.034 29.8206 54.683C29.5562 54.332 29.1402 54.1565 28.5726 54.1565C27.9312 54.1565 27.4546 54.3558 27.1426 54.7545C26.8306 55.1488 26.6746 55.7273 26.6746 56.49C26.6746 57.2007 26.8306 57.751 27.1426 58.141C27.4546 58.531 27.9096 58.726 28.5076 58.726C28.8932 58.726 29.2247 58.6415 29.5021 58.4725C29.7837 58.2992 30.0004 58.05 30.1521 57.725L31.6991 58.193C31.4304 58.8257 31.0144 59.3175 30.4511 59.6685C29.8921 60.0195 29.2746 60.195 28.5986 60.195ZM26.1806 56.9255V55.7425H31.0101V56.9255H26.1806ZM33.2144 60V52.98H34.7809V55.749H37.9334V52.98H39.4999V60H37.9334V57.218H34.7809V60H33.2144ZM43.2773 60.195C42.7703 60.195 42.3413 60.0997 41.9903 59.909C41.6393 59.714 41.3728 59.4562 41.1908 59.1355C41.0131 58.8148 40.9243 58.4617 40.9243 58.076C40.9243 57.738 40.9806 57.4347 41.0933 57.166C41.206 56.893 41.3793 56.659 41.6133 56.464C41.8473 56.2647 42.1506 56.1022 42.5233 55.9765C42.805 55.8855 43.1343 55.8032 43.5113 55.7295C43.8926 55.6558 44.3043 55.5887 44.7463 55.528C45.1926 55.463 45.6585 55.3937 46.1438 55.32L45.5848 55.6385C45.5891 55.1532 45.4808 54.7957 45.2598 54.566C45.0388 54.3363 44.6661 54.2215 44.1418 54.2215C43.8255 54.2215 43.52 54.2952 43.2253 54.4425C42.9306 54.5898 42.7248 54.8433 42.6078 55.203L41.1778 54.7545C41.3511 54.1608 41.6805 53.6842 42.1658 53.3245C42.6555 52.9648 43.3141 52.785 44.1418 52.785C44.7658 52.785 45.314 52.8868 45.7863 53.0905C46.263 53.2942 46.6161 53.6278 46.8458 54.0915C46.9715 54.3385 47.0473 54.592 47.0733 54.852C47.0993 55.1077 47.1123 55.3872 47.1123 55.6905V60H45.7408V58.479L45.9683 58.726C45.652 59.233 45.2815 59.6057 44.8568 59.844C44.4365 60.078 43.91 60.195 43.2773 60.195ZM43.5893 58.947C43.9446 58.947 44.248 58.8842 44.4993 58.7585C44.7506 58.6328 44.95 58.479 45.0973 58.297C45.249 58.115 45.3508 57.9438 45.4028 57.7835C45.4851 57.5842 45.5306 57.3567 45.5393 57.101C45.5523 56.841 45.5588 56.6308 45.5588 56.4705L46.0398 56.6135C45.5675 56.6872 45.1623 56.7522 44.8243 56.8085C44.4863 56.8648 44.196 56.919 43.9533 56.971C43.7106 57.0187 43.4961 57.0728 43.3098 57.1335C43.1278 57.1985 42.974 57.2743 42.8483 57.361C42.7226 57.4477 42.6251 57.5473 42.5558 57.66C42.4908 57.7727 42.4583 57.9048 42.4583 58.0565C42.4583 58.2298 42.5016 58.3837 42.5883 58.518C42.675 58.648 42.8006 58.752 42.9653 58.83C43.1343 58.908 43.3423 58.947 43.5893 58.947ZM50.6271 60L53.7991 55.268L50.7181 50.64H52.6356L54.7676 53.9355L56.8801 50.64H58.8106L55.7296 55.268L58.8886 60H56.9711L54.7676 56.6005L52.5576 60H50.6271ZM59.9126 60V52.98H63.1041C63.3338 52.98 63.5483 52.993 63.7476 53.019C63.947 53.045 64.1181 53.0775 64.2611 53.1165C64.5991 53.2162 64.8981 53.4112 65.1581 53.7015C65.4181 53.9875 65.5481 54.384 65.5481 54.891C65.5481 55.19 65.5005 55.437 65.4051 55.632C65.3098 55.8227 65.1841 55.983 65.0281 56.113C64.9545 56.1737 64.8786 56.2257 64.8006 56.269C64.7226 56.3123 64.6446 56.347 64.5666 56.373C64.7356 56.399 64.896 56.4488 65.0476 56.5225C65.286 56.6395 65.4853 56.8128 65.6456 57.0425C65.8103 57.2722 65.8926 57.595 65.8926 58.011C65.8926 58.4833 65.7778 58.882 65.5481 59.207C65.3228 59.5277 64.9913 59.7508 64.5536 59.8765C64.3933 59.9198 64.2091 59.9523 64.0011 59.974C63.7931 59.9913 63.5808 60 63.3641 60H59.9126ZM61.4986 58.791H63.2536C63.3446 58.791 63.4443 58.7823 63.5526 58.765C63.661 58.7477 63.7585 58.7238 63.8451 58.6935C64.0011 58.6372 64.1138 58.5375 64.1831 58.3945C64.2568 58.2515 64.2936 58.102 64.2936 57.946C64.2936 57.7337 64.2395 57.5647 64.1311 57.439C64.0271 57.309 63.9015 57.2223 63.7541 57.179C63.6675 57.1443 63.5721 57.1248 63.4681 57.1205C63.3685 57.1118 63.2861 57.1075 63.2211 57.1075H61.4986V58.791ZM61.4986 55.879H62.7986C62.933 55.879 63.063 55.8725 63.1886 55.8595C63.3186 55.8422 63.427 55.814 63.5136 55.775C63.6566 55.7187 63.7606 55.6233 63.8256 55.489C63.895 55.3547 63.9296 55.2052 63.9296 55.0405C63.9296 54.8672 63.8906 54.7112 63.8126 54.5725C63.739 54.4295 63.6198 54.3342 63.4551 54.2865C63.3468 54.2432 63.2146 54.2193 63.0586 54.215C62.907 54.2107 62.8095 54.2085 62.7661 54.2085H61.4986V55.879ZM73.2713 52.98V60H71.7698V55.4175L68.4288 60H67.1743V52.98H68.6758V57.4455L72.0298 52.98H73.2713ZM74.4465 60V58.687C74.7022 58.7347 74.8994 58.7303 75.038 58.674C75.1767 58.6133 75.2807 58.5007 75.35 58.336C75.4194 58.1713 75.48 57.9525 75.532 57.6795C75.6014 57.2938 75.662 56.8497 75.714 56.347C75.7704 55.8443 75.818 55.307 75.857 54.735C75.9004 54.163 75.9394 53.578 75.974 52.98H81.1415V60H79.5815V54.449H77.352C77.3304 54.7307 77.3044 55.047 77.274 55.398C77.2437 55.7447 77.2112 56.0957 77.1765 56.451C77.1419 56.8063 77.1029 57.1443 77.0595 57.465C77.0205 57.7813 76.9794 58.0522 76.936 58.2775C76.8364 58.7845 76.6934 59.1853 76.507 59.48C76.325 59.7747 76.0694 59.9632 75.74 60.0455C75.4107 60.1322 74.9795 60.117 74.4465 60ZM87.1666 60V57.66H85.9121C85.7518 57.66 85.5503 57.6557 85.3076 57.647C85.0693 57.6383 84.8461 57.6167 84.6381 57.582C84.0965 57.4823 83.648 57.2462 83.2926 56.8735C82.9373 56.4965 82.7596 55.9852 82.7596 55.3395C82.7596 54.7068 82.9286 54.1977 83.2666 53.812C83.6046 53.4263 84.0445 53.1793 84.5861 53.071C84.8115 53.0233 85.0433 52.9973 85.2816 52.993C85.5243 52.9843 85.7258 52.98 85.8861 52.98H88.7331V60H87.1666ZM82.5776 60L84.2546 57.3155H85.8861L84.2221 60H82.5776ZM85.7496 56.4315H87.1666V54.2085H85.7496C85.6673 54.2085 85.5676 54.2128 85.4506 54.2215C85.3336 54.2302 85.2166 54.2497 85.0996 54.28C84.974 54.319 84.8548 54.3862 84.7421 54.4815C84.6295 54.5768 84.5363 54.696 84.4626 54.839C84.389 54.982 84.3521 55.1445 84.3521 55.3265C84.3521 55.5995 84.4301 55.827 84.5861 56.009C84.7465 56.1867 84.9328 56.3058 85.1451 56.3665C85.2491 56.3925 85.3553 56.4098 85.4636 56.4185C85.5763 56.4272 85.6716 56.4315 85.7496 56.4315Z" fill="#0C3E2E"/>
</svg>
