<svg width="42" height="42" viewBox="0 0 42 42" fill="none" xmlns="http://www.w3.org/2000/svg">
<path d="M20.575 0C9.2176 0 0 9.19369 0 20.5216C0 31.8496 9.2176 41.0432 20.575 41.0432C31.9324 41.0432 41.15 31.8496 41.15 20.5216C41.15 9.19369 31.9324 0 20.575 0ZM30.1218 13.9547C29.8132 17.1971 28.4758 25.0774 27.7968 28.7097C27.5088 30.2489 26.9327 30.7619 26.3977 30.8235C25.2044 30.9261 24.2991 30.0437 23.1469 29.2844C21.3363 28.0941 20.3075 27.3553 18.5587 26.2061C16.5217 24.8722 17.8385 24.1334 19.0113 22.9432C19.3199 22.6353 24.5871 17.8538 24.69 17.4229C24.7043 17.3576 24.7024 17.2898 24.6845 17.2254C24.6665 17.1611 24.6331 17.102 24.5871 17.0535C24.4637 16.9509 24.2991 16.9919 24.1551 17.0124C23.9699 17.0535 21.0894 18.962 15.4724 22.738C14.6494 23.292 13.9087 23.5793 13.2503 23.5588C12.5096 23.5383 11.1105 23.1484 10.0612 22.7995C8.76495 22.3891 7.75678 22.1633 7.83908 21.4451C7.88023 21.0757 8.3946 20.7063 9.36163 20.3164C15.3695 17.7102 19.3611 15.9863 21.3569 15.1655C27.0767 12.785 28.2495 12.3745 29.0313 12.3745C29.1959 12.3745 29.5869 12.4156 29.8338 12.6208C30.0395 12.785 30.1012 13.0107 30.1218 13.1749C30.1012 13.298 30.1424 13.6674 30.1218 13.9547Z" fill="#2697BE"/>
</svg>
