<svg width="1000" height="223" viewBox="0 0 1000 223" fill="none" xmlns="http://www.w3.org/2000/svg">
<path d="M1300 223L1255.56 186.55C1211.11 150.1 1122.22 77.2 1033.33 69.0747C944.444 61.2531 855.556 117.447 766.667 117.675C677.778 117.447 588.889 61.2531 500 61.0253C411.111 61.2531 322.222 117.447 233.333 141.975C144.444 166.047 55.5556 158.453 -33.3333 137.95C-122.222 117.447 -211.111 85.5531 -255.556 69.0747L-300 52.9V-20H-255.556C-211.111 -20 -122.222 -20 -33.3333 -20C55.5556 -20 144.444 -20 233.333 -20C322.222 -20 411.111 -20 500 -20C588.889 -20 677.778 -20 766.667 -20C855.556 -20 944.444 -20 1033.33 -20C1122.22 -20 1211.11 -20 1255.56 -20H1300V223Z" fill="#1BD035" fill-opacity="0.1"/>
</svg>
