<svg width="201" height="200" viewBox="0 0 201 200" fill="none" xmlns="http://www.w3.org/2000/svg">
<g id="Frame">
<path id="Vector" d="M49.7036 105.859C51.5683 107.64 53.1773 109.713 53.2467 112.387C53.2376 112.682 53.2285 112.977 53.2192 113.281C52.8179 113.084 52.4166 112.886 52.0031 112.683C47.5418 110.518 47.5418 110.518 42.6723 110.547C40.9335 111.4 39.8642 112.476 38.7661 114.062C38.1683 115.856 38.0077 117.725 38.6562 119.533C39.9141 121.881 41.745 123.068 44.1189 124.126C44.5338 124.313 44.9487 124.5 45.3762 124.692C45.8052 124.883 46.2342 125.073 46.6762 125.268C47.5331 125.652 48.3896 126.036 49.2458 126.42C49.6241 126.589 50.0024 126.757 50.3921 126.93C51.2661 127.344 51.2661 127.344 51.6567 127.734C51.5631 131.122 50.8291 134.527 50.2743 137.862C49.8993 140.206 49.6332 142.523 49.4854 144.893C49.4684 145.16 49.4514 145.427 49.4339 145.703C49.3927 146.354 49.3527 147.005 49.3129 147.656C49.6051 147.578 49.8972 147.5 50.1982 147.419C52.9715 146.677 55.7464 145.941 58.523 145.211C59.95 144.836 61.3763 144.459 62.8012 144.076C64.1802 143.706 65.5607 143.342 66.9424 142.982C67.4654 142.845 67.9878 142.705 68.5096 142.564C72.2831 141.54 76.5769 140.428 80.3432 142.017C82.5611 143.339 84.0408 145.227 84.8598 147.656C85.11 148.976 85.2793 150.304 85.4505 151.635C85.504 152.035 85.5574 152.435 85.6125 152.847C85.7883 154.167 85.9605 155.488 86.1324 156.808C86.2537 157.727 86.3752 158.646 86.4969 159.565C86.7513 161.491 87.0039 163.418 87.2553 165.344C87.5772 167.811 87.9029 170.277 88.2299 172.743C88.4813 174.641 88.7309 176.539 88.9799 178.437C89.0993 179.346 89.2192 180.256 89.3397 181.165C89.5078 182.437 89.6737 183.709 89.839 184.982C89.8889 185.356 89.9388 185.731 89.9902 186.116C90.446 189.663 90.5593 192.507 88.7661 195.703C87.1134 197.658 84.9418 198.997 82.3803 199.342C79.6305 199.474 77.2877 198.874 75.1766 197.053C72.1406 193.786 71.9384 189.444 71.3909 185.223C71.3053 184.583 71.2194 183.944 71.1332 183.304C70.954 181.968 70.7773 180.633 70.6025 179.297C70.3785 177.585 70.1504 175.874 69.9208 174.164C69.7014 172.528 69.4841 170.892 69.2669 169.257C69.2254 168.945 69.1839 168.634 69.1412 168.314C69.0242 167.433 68.9086 166.553 68.7936 165.672C68.7277 165.171 68.6618 164.671 68.594 164.155C68.4536 162.891 68.4536 162.891 68.4536 161.328C68.0372 161.445 67.6208 161.562 67.1919 161.683C62.9912 162.861 58.7799 163.99 54.5547 165.076C53.5475 165.335 52.5411 165.598 51.5346 165.86C50.8826 166.028 50.2306 166.196 49.5785 166.363C49.1359 166.479 49.1359 166.479 48.6844 166.598C42.9228 168.066 35.7378 168.6 30.3921 165.552C26.4896 162.752 24.7052 158.923 23.9223 154.297C23.4203 150.883 23.4457 147.437 23.4379 143.995C23.4341 143.007 23.422 142.02 23.4096 141.033C23.368 134.737 24.2396 128.75 26.0219 122.705C26.1423 122.29 26.2627 121.875 26.3867 121.447C26.7287 120.285 27.0797 119.126 27.4379 117.969C27.5256 117.685 27.6133 117.402 27.7036 117.11C29.3443 111.972 32.1566 108.235 36.8129 105.469C40.8424 103.478 45.996 103.041 49.7036 105.859Z" fill="black"/>
<path id="Vector_2" d="M143.062 16.7969C144.609 16.7969 146.156 16.7969 147.75 16.7969C147.485 23.7459 146.959 30.6721 146.427 37.6045C146.245 39.9839 146.064 42.3634 145.884 44.743C145.821 45.567 145.758 46.391 145.694 47.2149C145.656 47.7123 145.618 48.2097 145.579 48.7222C145.546 49.1589 145.512 49.5956 145.478 50.0456C145.421 50.9404 145.406 51.8378 145.406 52.7344C151.308 50.7575 154.592 48.2576 158.05 43.1183C159.097 41.5898 160.238 40.1356 161.373 38.6719C161.789 38.1274 162.205 37.5826 162.621 37.0377C165.805 32.8816 165.805 32.8816 166.891 31.6406C167.02 31.6406 167.148 31.6406 167.281 31.6406C167.594 34.2949 166.684 35.5441 165.084 37.5977C164.858 37.8984 164.632 38.1992 164.399 38.5091C163.918 39.1481 163.435 39.7853 162.95 40.4207C162.199 41.412 161.463 42.4131 160.731 43.4189C160.491 43.7478 160.251 44.0768 160.005 44.4157C159.771 44.7358 159.538 45.0559 159.298 45.3857C158.455 46.5426 157.602 47.6897 156.734 48.8281C156.553 49.0756 156.372 49.323 156.185 49.5779C154.651 51.5453 152.878 52.5339 150.655 53.6133C150.004 53.9404 149.352 54.268 148.701 54.5959C148.415 54.7361 148.129 54.8762 147.835 55.0205C147.549 55.1684 147.263 55.3163 146.969 55.4687C146.618 55.6272 146.266 55.7857 145.904 55.9489C144.905 56.5795 144.905 56.5795 144.733 57.7905C144.718 58.2575 144.703 58.7245 144.688 59.2056C144.678 59.462 144.668 59.7185 144.658 59.9826C144.56 63.1576 144.677 66.3341 144.796 69.5068C144.817 70.12 144.837 70.7331 144.858 71.3463C144.907 72.8247 144.96 74.303 145.016 75.7812C145.764 75.5239 146.512 75.2665 147.26 75.0092C147.737 74.8452 148.215 74.6812 148.706 74.5122C149.752 74.1524 150.796 73.7894 151.839 73.424C156.288 71.8696 156.288 71.8696 158.355 71.2997C162.738 70.0532 165.375 67.6457 168.51 64.3984C169.94 62.964 171.487 61.6383 173.066 60.3703C175.122 58.6695 176.55 56.8561 177.984 54.6173C178.203 54.284 178.422 53.9506 178.648 53.6072C179.339 52.5541 180.024 51.4971 180.709 50.4394C181.403 49.3742 182.098 48.3098 182.795 47.2466C183.227 46.5877 183.656 45.9274 184.084 45.2656C184.277 44.9694 184.47 44.6733 184.669 44.3682C184.838 44.1066 185.008 43.8451 185.182 43.5757C185.641 42.9687 185.641 42.9687 186.422 42.5781C186.523 44.3321 186.338 45.3574 185.448 46.8689C185.239 47.2308 185.03 47.5928 184.815 47.9657C184.588 48.347 184.361 48.7283 184.127 49.1211C183.656 49.9259 183.186 50.7311 182.717 51.5366C182.483 51.9358 182.249 52.335 182.008 52.7464C181.408 53.7936 180.84 54.8491 180.288 55.9219C178.353 59.6627 176.515 62.237 173.141 64.8437C172.432 65.4203 171.724 65.9981 171.017 66.5771C170.679 66.8465 170.34 67.1159 169.992 67.3934C168.839 68.3337 168.839 68.3337 167.846 69.3652C164.706 72.526 161.428 74.1055 157.32 75.7324C156.722 75.9777 156.125 76.2238 155.527 76.4709C154.379 76.9446 153.228 77.4124 152.074 77.8744C150.258 78.6031 148.457 79.3682 146.658 80.1393C145.797 80.4687 145.797 80.4687 145.016 80.4687C145.041 80.6927 145.067 80.9166 145.093 81.1473C145.389 83.8894 145.529 86.6242 145.626 89.3799C145.643 89.8365 145.659 90.2931 145.676 90.7636C145.816 94.8851 145.837 99.0017 145.797 103.125C146.044 103.011 146.291 102.897 146.546 102.78C147.288 102.439 148.031 102.097 148.774 101.756C149.627 101.364 150.481 100.97 151.334 100.576C153.28 99.6797 155.225 98.7936 157.209 97.9843C160.472 96.6443 162.976 95.323 165.511 92.7841C166.869 91.4284 168.357 90.2614 169.855 89.0655C170.813 88.2991 170.813 88.2991 171.638 87.3962C171.995 87.0609 171.995 87.0609 172.359 86.7187C173.684 86.7818 174.15 86.9465 175.094 87.8906C173.093 89.9278 171.09 91.9319 168.917 93.7851C167.464 95.0538 166.072 96.3911 164.672 97.7173C161.622 100.426 158.099 102.398 154.537 104.346C153.693 104.81 152.85 105.275 152.007 105.74C151.639 105.942 151.271 106.143 150.892 106.351C150.304 106.688 150.304 106.688 149.703 107.031C149.445 107.144 149.186 107.256 148.919 107.372C147.994 107.827 147.312 108.256 146.578 108.984C146.093 110.426 146.119 111.833 146.122 113.344C146.111 113.785 146.099 114.227 146.088 114.681C146.054 116.148 146.042 117.614 146.03 119.081C146.011 120.114 145.99 121.148 145.968 122.181C145.917 124.638 145.882 127.095 145.853 129.552C145.82 132.28 145.771 135.007 145.72 137.734C145.636 142.21 145.563 146.687 145.497 151.164C145.42 156.377 145.319 161.589 145.199 166.801C145.191 167.144 145.183 167.487 145.175 167.84C145.05 173.354 144.873 178.865 144.625 184.375C145.116 184.512 145.608 184.649 146.114 184.79C146.391 184.867 146.667 184.944 146.952 185.023C147.825 185.233 147.825 185.233 148.922 184.766C149.665 185.008 149.665 185.008 150.489 185.411C150.785 185.553 151.081 185.696 151.385 185.842C151.692 185.994 151.999 186.147 152.315 186.304C152.627 186.455 152.938 186.605 153.259 186.761C154.029 187.134 154.796 187.511 155.562 187.891C155.562 188.535 155.562 189.18 155.562 189.844C157.022 190.265 157.022 190.265 158.419 189.77C159.705 189.382 159.985 189.595 161.153 190.186C161.629 190.459 162.104 190.733 162.594 191.016C162.336 192.176 162.078 193.336 161.812 194.531C161.426 194.531 161.039 194.531 160.641 194.531C160.552 194.765 160.463 194.999 160.372 195.239C159.667 196.414 159.19 196.757 157.906 197.266C156.56 197.322 155.29 197.275 154 196.875C153.743 196.486 153.743 196.486 153.48 196.089C152.894 195.23 152.894 195.23 151.925 195.118C151.405 195.117 151.405 195.117 150.875 195.116C150.307 195.105 150.307 195.105 149.728 195.094C149.333 195.093 148.938 195.093 148.531 195.093C147.75 195.089 146.969 195.081 146.188 195.067C145.841 195.067 145.495 195.066 145.138 195.066C144.056 194.893 143.777 194.546 143.062 193.75C141.072 193.754 139.202 194.445 137.472 195.386C136.465 195.93 136.132 196.098 134.957 196.045C134.111 195.716 133.31 195.363 132.516 194.922C132.516 195.18 132.516 195.437 132.516 195.703C131.841 195.902 131.165 196.096 130.489 196.289C129.925 196.452 129.925 196.452 129.349 196.619C128.276 196.862 127.361 196.923 126.266 196.875C126.137 196.617 126.008 196.359 125.875 196.094C124.864 195.884 123.894 195.729 122.872 195.605C122.595 195.565 122.319 195.525 122.034 195.483C120.214 195.255 119.024 195.439 117.281 196.094C114.908 196.179 112.802 195.435 110.641 194.531C110.521 193.254 110.556 192.216 111.031 191.016C112.717 189.718 114.76 188.838 116.915 189.111C118.062 189.453 118.062 189.453 118.844 189.844C118.844 188.941 118.844 188.039 118.844 187.109C120.453 186.605 121.839 186.226 123.531 186.328C123.531 186.07 123.531 185.812 123.531 185.547C124.734 185.021 125.939 184.502 127.145 183.984C127.485 183.835 127.826 183.686 128.178 183.533C128.507 183.392 128.837 183.251 129.177 183.105C129.48 182.975 129.783 182.844 130.094 182.709C130.953 182.422 130.953 182.422 132.516 182.422C133.335 176.609 133.803 170.76 134.31 164.914C134.437 163.451 134.566 161.989 134.694 160.526C134.936 157.763 135.178 155 135.419 152.237C135.851 147.285 136.284 142.332 136.718 137.379C136.87 135.645 137.022 133.91 137.173 132.176C137.244 131.357 137.316 130.539 137.387 129.72C137.474 128.726 137.561 127.732 137.647 126.738C137.847 124.458 138.071 122.19 138.375 119.922C137.928 119.795 137.928 119.795 137.472 119.666C130.863 117.257 125.999 113.675 122.125 107.846C121.345 106.683 120.499 105.58 119.649 104.468C119.246 103.921 119.246 103.921 118.835 103.363C118.322 102.686 117.79 102.022 117.242 101.373C115.164 98.9065 115.164 98.9065 115.157 97.2412C115.214 96.8625 115.27 96.4839 115.328 96.0937C116.618 97.074 117.662 98.0338 118.648 99.3164C119.625 100.568 120.607 101.814 121.613 103.043C121.826 103.303 122.039 103.563 122.258 103.832C122.704 104.374 123.151 104.915 123.599 105.454C124.579 106.642 125.466 107.782 126.263 109.105C128.947 113.534 133.741 114.954 138.375 116.797C138.695 114.809 138.84 112.861 138.882 110.848C138.893 110.384 138.893 110.384 138.905 109.911C138.93 108.899 138.952 107.886 138.975 106.874C138.991 106.169 139.008 105.463 139.026 104.758C139.07 102.908 139.113 101.057 139.155 99.2073C139.198 97.3167 139.243 95.4262 139.288 93.5356C139.376 89.8311 139.462 86.1265 139.547 82.4219C139.009 82.248 139.009 82.248 138.461 82.0706C137.015 81.5763 135.667 80.9378 134.299 80.2628C134.023 80.128 133.747 79.9932 133.463 79.8544C132.873 79.5664 132.284 79.2778 131.696 78.9886C130.465 78.3844 129.234 77.7835 128.002 77.1824C127.385 76.8813 126.768 76.5801 126.152 76.2787C123.575 75.0194 120.992 73.7719 118.404 72.5342C118.059 72.3683 117.713 72.2024 117.357 72.0315C117.033 71.8766 116.709 71.7218 116.375 71.5622C116.069 71.4148 115.763 71.2675 115.448 71.1157C114.849 70.8414 114.24 70.5868 113.624 70.3531C111.161 69.3996 109.925 68.0525 108.297 66.0156C107.822 65.4934 107.341 64.9761 106.855 64.4638C106.609 64.2039 106.364 63.9441 106.111 63.6764C105.858 63.409 105.604 63.1417 105.343 62.8662C104.797 62.2885 104.251 61.7107 103.706 61.1328C103.432 60.8428 103.158 60.5527 102.875 60.2539C101.553 58.8506 100.237 57.4408 98.9219 56.0303C98.6854 55.7767 98.449 55.5231 98.2054 55.2619C97.6628 54.6799 97.1205 54.0978 96.5781 53.5156C97.1217 52.1566 97.6065 51.7654 98.9219 51.1719C99.173 51.4425 99.173 51.4425 99.4293 51.7187C109.8 63.3697 109.8 63.3697 123.269 70.6034C125.982 71.5312 128.587 72.7312 131.211 73.8821C132.696 74.5305 134.187 75.1639 135.679 75.798C138.262 76.8965 138.262 76.8965 139.156 77.3437C139.806 72.0896 139.806 72.0896 137.817 67.4248C136.86 66.4025 135.872 65.4209 134.859 64.4531C130.855 60.3682 129.807 56.0334 128.537 50.5506C128.223 49.2361 127.877 47.9349 127.517 46.6324C127.405 46.225 127.293 45.8175 127.178 45.3978C126.965 44.6263 126.751 43.8553 126.535 43.0849C126.442 42.7379 126.349 42.3909 126.253 42.0334C126.171 41.7319 126.088 41.4303 126.002 41.1197C125.853 40.0842 126.01 39.2894 126.266 38.2812C126.652 38.1523 127.039 38.0234 127.438 37.8906C127.505 38.1439 127.572 38.3972 127.642 38.6582C128.347 41.3038 129.065 43.9457 129.791 46.5857C130.06 47.5703 130.325 48.5558 130.587 49.5421C130.966 50.9632 131.356 52.3807 131.748 53.7979C131.919 54.456 131.919 54.456 132.094 55.1274C132.877 57.8972 133.826 59.4915 136.031 61.3281C136.766 62.1496 137.477 62.9854 138.187 63.8275C138.737 64.4965 138.737 64.4965 139.547 64.8437C139.563 64.6175 139.578 64.3912 139.595 64.1581C139.979 58.6412 140.363 53.1243 140.749 47.6074C140.935 44.9395 141.122 42.2715 141.307 39.6035C141.486 37.0276 141.666 34.4518 141.847 31.876C141.915 30.8944 141.984 29.9128 142.052 28.9312C142.147 27.5539 142.244 26.1767 142.341 24.7994C142.368 24.3957 142.396 23.9919 142.425 23.5759C142.585 21.3082 142.796 19.0547 143.062 16.7969Z" fill="#BB8A52"/>
<path id="Vector_3" d="M50.8747 167.188C51.8703 169.717 52.8643 172.248 53.8573 174.779C54.1954 175.64 54.5337 176.501 54.8724 177.361C55.3591 178.598 55.8446 179.836 56.3298 181.073C56.4815 181.458 56.6333 181.843 56.7897 182.24C56.9304 182.599 57.0712 182.959 57.2162 183.329C57.3402 183.645 57.4643 183.961 57.5921 184.286C58.6991 187.355 58.4103 190.006 57.1247 192.969C55.9427 194.969 54.1455 195.986 52.0466 196.875C50.7269 197.131 49.4526 197.139 48.1113 197.122C47.7348 197.124 47.3583 197.127 46.9704 197.13C45.7361 197.137 44.5025 197.129 43.2682 197.121C42.4049 197.121 41.5417 197.122 40.6784 197.124C38.8734 197.125 37.0687 197.119 35.2638 197.108C32.9551 197.095 30.6467 197.097 28.338 197.105C26.5568 197.109 24.7757 197.105 22.9946 197.099C22.1435 197.097 21.2924 197.097 20.4413 197.1C19.2503 197.102 18.0598 197.094 16.8689 197.083C16.3461 197.087 16.3461 197.087 15.8128 197.091C13.1574 197.051 11.0977 196.381 9.0687 194.63C8.89448 194.412 8.72025 194.194 8.54075 193.97C8.36048 193.753 8.18021 193.536 7.99448 193.312C6.47626 190.986 6.41827 188.636 6.73411 185.938C7.53295 183.165 8.91389 181.591 11.3499 180.101C12.905 179.347 14.2671 179.249 15.9867 179.253C16.4323 179.253 16.878 179.253 17.3371 179.253C17.8161 179.255 18.2951 179.257 18.7886 179.259C19.2805 179.259 19.7725 179.26 20.2795 179.26C21.5844 179.262 22.8892 179.266 24.1941 179.27C25.5269 179.274 26.8597 179.276 28.1925 179.278C30.8054 179.282 33.4182 179.289 36.031 179.297C35.9008 178.97 35.7707 178.642 35.6365 178.305C35.155 177.093 34.6747 175.88 34.1952 174.667C33.9872 174.141 33.7788 173.616 33.5699 173.091C33.2701 172.337 32.9719 171.583 32.674 170.828C32.494 170.374 32.314 169.92 32.1285 169.452C31.7341 168.359 31.7341 168.359 31.7341 167.578C34.6488 167.93 34.6488 167.93 35.9577 168.172C40.2026 168.812 44.2847 168.338 48.441 167.444C49.7029 167.188 49.7029 167.188 50.8747 167.188Z" fill="black"/>
<path id="Vector_4" d="M63.5214 74.1943C64.5468 75 64.5468 75 65.3555 75.9781C66.8991 77.2932 68.2467 77.4385 70.2109 77.7344C78.9707 79.2744 78.9707 79.2744 81.7343 82.4219C82.2226 83.5938 82.2226 83.5938 82.1249 84.7656C80.3094 86.9962 77.8635 87.5309 75.0937 87.8906C68.1489 88.4081 60.7286 87.9013 54.3906 84.7656C58.8831 88.2847 64.5629 89.6838 70.0156 91.0156C69.5201 94.729 67.4298 97.9208 64.5209 100.258C60.7269 102.943 56.4954 103.947 51.8759 103.296C47.6531 102.38 44.1707 100.274 41.4999 96.875C38.9247 92.8038 38.1779 88.5337 39.0097 83.7891C39.9443 80.161 42.0339 76.8778 45.0156 74.6094C51.0284 71.0697 57.3859 70.6721 63.5214 74.1943Z" fill="black"/>
<path id="Vector_5" d="M95.4058 109.497C95.7925 109.823 95.7925 109.823 96.1871 110.156C96.4046 110.309 96.6221 110.462 96.8462 110.62C97.8498 112.006 98.1585 113.576 98.1234 115.256C97.7178 117.708 96.1782 118.917 94.2339 120.312C92.4124 121.354 90.5343 122.263 88.6431 123.169C87.8512 123.555 87.0601 123.942 86.269 124.33C85.7461 124.586 85.223 124.842 84.6995 125.097C82.6049 126.12 80.5414 127.195 78.4869 128.296C77.3572 128.893 76.2255 129.486 75.0933 130.078C74.7979 130.234 74.5025 130.39 74.1982 130.55C73.3129 131.013 72.4222 131.462 71.5289 131.909C71.2699 132.047 71.0109 132.184 70.7441 132.326C68.7086 133.32 67.1203 133.425 64.9371 132.812C63.0925 132.093 61.319 131.24 59.5415 130.371C59.0286 130.125 58.5154 129.879 58.0019 129.633C57.208 129.254 56.4144 128.874 55.6216 128.492C53.7916 127.611 51.9509 126.758 50.1009 125.92C49.6021 125.693 49.1033 125.466 48.6045 125.239C47.6648 124.812 46.7237 124.388 45.7815 123.966C40.7365 121.657 40.7365 121.657 39.3999 119.409C38.9046 117.279 38.8205 115.847 39.8638 113.94C41.7919 111.572 41.7919 111.572 43.8027 111.186C47.3829 110.913 50.359 112.731 53.4624 114.282C54.0312 114.561 54.6004 114.839 55.1699 115.116C55.451 115.253 55.7321 115.39 56.0217 115.531C56.3021 115.667 56.5824 115.803 56.8713 115.944C57.1503 116.08 57.4293 116.215 57.7168 116.355C58.5602 116.765 59.4046 117.172 60.2496 117.578C60.5362 117.716 60.8228 117.854 61.1181 117.996C61.9597 118.396 62.805 118.787 63.6523 119.176C63.9045 119.297 64.1567 119.418 64.4166 119.542C66.0707 120.286 67.1066 120.443 68.8433 119.922C69.7915 119.501 70.6904 119.068 71.6036 118.582C71.8644 118.447 72.1252 118.311 72.3938 118.172C72.9504 117.882 73.5062 117.591 74.0613 117.299C74.9292 116.842 75.7995 116.39 76.6705 115.939C79.2165 114.618 81.7511 113.282 84.2562 111.885C84.6202 111.685 84.9843 111.485 85.3593 111.278C86.0095 110.919 86.6558 110.552 87.2966 110.175C89.8526 108.767 92.6636 108.297 95.4058 109.497Z" fill="black"/>
<path id="Vector_6" d="M117.281 49.2188C118.453 49.6094 118.453 49.6094 119.053 50.6485C121.028 55.0475 122.314 58.5132 120.815 63.2751C120.299 64.27 119.814 64.6775 118.844 65.2344C117.011 65.5651 115.421 65.486 113.766 64.624C112.377 62.9311 112.114 61.246 112.203 59.1064C112.688 55.3552 114.912 52.0749 117.281 49.2188Z" fill="#0C3E2E"/>
<path id="Vector_7" d="M109.469 68.3594C110.654 69.6027 110.985 70.376 111.227 72.0703C110.988 73.7369 110.585 74.522 109.469 75.7813C105.708 77.7288 101.506 77.3865 97.5547 76.1719C96.8353 75.9205 96.1177 75.6635 95.4062 75.3906C95.4062 73.8255 95.9631 73.3642 96.9764 72.2305C100.373 68.9544 104.758 66.4108 109.469 68.3594Z" fill="#0C3E2E"/>
<path id="Vector_8" d="M102.438 89.8438C102.824 89.8438 103.211 89.8438 103.609 89.8438C105.146 92.5962 105.302 95.6501 104.511 98.6969C103.744 100.617 102.714 102.106 100.875 103.125C99.0276 103.912 97.1499 104.534 95.2109 105.054C94.1502 105.382 94.1502 105.382 93.7385 106.427C92.8451 107.742 92.1778 107.817 90.6455 108.13C90.0088 108.267 90.0088 108.267 89.3592 108.406C89.0344 108.468 88.7096 108.53 88.375 108.594C88.5681 106.681 89.5222 105.365 90.5967 103.833C90.9519 103.315 91.3064 102.796 91.6602 102.277C91.833 102.024 92.0058 101.771 92.1838 101.51C93.1929 100.003 94.1008 98.4398 95.0156 96.875C97.3359 97.2617 97.3359 97.2617 99.7031 97.6562C100.831 96.1807 100.831 96.1807 101.331 94.574C101.431 94.1586 101.431 94.1586 101.533 93.7347C101.598 93.4497 101.663 93.1647 101.729 92.8711C101.799 92.58 101.868 92.289 101.939 91.9891C102.109 91.2748 102.274 90.5594 102.438 89.8438ZM97.3594 100C97.3594 100.387 97.3594 100.773 97.3594 101.172C97.7461 101.043 98.1328 100.914 98.5312 100.781C98.5312 100.523 98.5312 100.266 98.5312 100C98.1445 100 97.7578 100 97.3594 100Z" fill="black"/>
<path id="Vector_9" d="M143.453 0C143.84 0 144.227 0 144.625 0C147.672 3.38557 149.086 6.81804 149.13 11.322C148.877 12.7578 148.362 13.4134 147.36 14.4531C145.994 15.136 144.553 15.0578 143.063 14.8438C141.425 13.8333 140.96 12.7203 140.524 10.9131C139.96 6.92158 141.54 3.41924 143.453 0Z" fill="#0C3E2E"/>
<path id="Vector_10" d="M87.5942 37.5C90.9755 38.031 93.9286 39.8782 96.0399 42.5491C97.2601 44.3846 97.8507 45.7324 97.5551 47.9492C96.8769 49.4187 96.4385 50.0081 95.016 50.7812C93.0492 51.0622 92.3184 51.0443 90.6215 50C88.8421 48.2982 87.6885 45.8149 87.5498 43.3537C87.5519 43.0836 87.5539 42.8136 87.556 42.5354C87.5573 42.2408 87.5585 41.9463 87.5598 41.6428C87.5631 41.3391 87.5664 41.0355 87.5697 40.7227C87.5715 40.413 87.5733 40.1033 87.5751 39.7842C87.5797 39.0228 87.5867 38.2614 87.5942 37.5Z" fill="#0C3E2E"/>
<path id="Vector_11" d="M105.953 41.4062C108.628 43.4258 110.739 45.9988 111.813 49.2188C112.038 51.2993 112.184 52.9532 111.007 54.7363C109.633 55.6135 108.755 55.8594 107.125 55.8594C105.478 55.1855 104.786 54.3067 104 52.7344C102.848 49.278 103.908 45.8678 105.172 42.5781C105.43 42.1914 105.688 41.8047 105.953 41.4062Z" fill="#0C3E2E"/>
<path id="Vector_12" d="M99.1218 58.8806C99.8593 59.5078 100.15 60.0299 100.484 60.9375C100.604 62.6809 100.397 64.0522 99.3369 65.4541C97.2812 66.419 95.3878 66.3983 93.2364 65.6845C90.7921 64.5613 88.5857 62.9692 86.8125 60.9375C86.5211 60.0601 86.5211 60.0601 86.4219 59.375C90.6079 57.8403 94.9772 56.6441 99.1218 58.8806Z" fill="#0C3E2E"/>
<path id="Vector_13" d="M159.86 22.6562C159.75 25.9602 158.768 29.1251 156.445 31.578C155.079 32.625 153.766 33.2031 152.047 33.2031C150.436 32.5286 149.597 31.6895 148.922 30.0781C148.847 28.3894 149.45 27.411 150.46 26.123C152.884 23.5037 156.383 22.5772 159.86 22.6562Z" fill="#0C3E2E"/>
<path id="Vector_14" d="M139.547 26.5625C140.686 27.5083 140.71 27.6575 140.89 29.248C140.832 30.3697 140.668 30.9744 140.206 32.0312C138.781 33.0916 137.732 33.1107 135.984 33.0246C133.02 32.4655 131.03 30.2967 129.122 28.0975C128.591 27.3163 128.383 26.7051 128.219 25.7812C131.965 24.354 136.167 24.3308 139.547 26.5625Z" fill="#0C3E2E"/>
<path id="Vector_15" d="M157.125 9.76562C158.039 12.5088 158.098 16.8133 156.856 19.4824C155.947 20.7109 155.436 21.362 154 21.875C152.739 21.8235 151.883 21.5949 150.753 21.0449C149.741 19.9205 149.728 19.0751 149.703 17.5781C150.226 14.5377 152.351 12.6128 154.697 10.7849C156.158 9.76562 156.158 9.76562 157.125 9.76562Z" fill="#0C3E2E"/>
<path id="Vector_16" d="M131.344 12.8906C134.914 13.5793 137.91 14.5209 140.353 17.334C140.892 18.8449 140.898 19.8755 140.719 21.4844C140.133 22.4609 140.133 22.4609 139.156 23.0469C137.604 23.3014 136.674 23.3792 135.276 22.6562C132.965 20.9072 132.005 18.4813 131.554 15.6769C131.457 14.7471 131.383 13.8245 131.344 12.8906Z" fill="#0C3E2E"/>
<path id="Vector_17" d="M172.187 96.4523C174.275 97.4342 176.285 98.6478 177.828 100.391C177.828 100.648 177.828 100.906 177.828 101.172C177.21 101.425 176.592 101.677 175.973 101.929C175.628 102.069 175.284 102.21 174.929 102.354C172.526 103.261 170.141 103.588 167.721 102.588C166.5 101.953 166.5 101.953 165.719 101.172C165.5 99.9768 165.519 98.8534 165.719 97.6562C167.353 95.4953 169.814 95.6009 172.187 96.4523Z" fill="#0C3E2E"/>
<path id="Vector_18" d="M180.563 76.1719C180.605 77.2872 180.636 78.4009 180.66 79.5166C180.68 79.9853 180.68 79.9853 180.7 80.4634C180.737 82.7672 180.297 84.0314 179 85.9375C178.839 86.1873 178.678 86.437 178.512 86.6943C177.303 87.4284 176.044 87.3801 174.703 87.1094C173.507 86.3281 173.507 86.3281 172.75 85.1562C172.713 82.8445 173.209 81.4956 174.703 79.6875C178.322 76.1719 178.322 76.1719 180.563 76.1719Z" fill="#0C3E2E"/>
<path id="Vector_19" d="M167.281 77.3438C167.668 77.3438 168.055 77.3438 168.453 77.3438C168.707 77.8964 168.959 78.45 169.21 79.0039C169.35 79.3121 169.491 79.6202 169.636 79.9377C170.639 82.3727 170.839 84.8352 169.869 87.3047C169.234 88.2813 169.234 88.2813 168.453 88.6719C165.596 88.8533 165.596 88.8533 164.571 88.1592C163.628 86.6606 163.627 85.3184 163.766 83.5938C164.524 81.2611 165.72 79.2249 167.281 77.3438Z" fill="#0C3E2E"/>
<path id="Vector_20" d="M184.078 90.2344C183.551 91.8486 182.889 92.7138 181.612 93.8232C181.316 94.0866 181.019 94.3499 180.714 94.6213C178.739 96.0849 177.094 96.3215 174.703 96.0937C173.617 95.3416 173.245 94.8037 172.774 93.5791C172.742 92.2341 173.093 91.6748 173.922 90.625C176.684 88.477 181.017 88.7036 184.078 90.2344Z" fill="#0C3E2E"/>
<path id="Vector_21" d="M159.078 82.8125C161.441 84.5161 163.07 86.4644 163.564 89.4089C163.65 91.1863 163.669 92.2062 162.545 93.6279C161.236 94.2256 160.499 94.3825 159.078 94.1406C158.179 93.4113 157.641 92.8295 157.125 91.7969C156.818 88.6179 157.207 86.0395 158.687 83.2031C158.816 83.0742 158.945 82.9453 159.078 82.8125Z" fill="#0C3E2E"/>
<path id="Vector_22" d="M190.718 30.8594C190.976 30.9883 191.234 31.1172 191.5 31.25C191.542 32.3002 191.573 33.3487 191.597 34.3994C191.617 34.8401 191.617 34.8401 191.637 35.2898C191.676 37.5278 191.236 38.7917 189.937 40.625C188.765 41.4062 188.765 41.4062 187.398 41.333C186.021 41.0134 185.683 40.9143 184.859 39.8438C184.473 38.3262 184.586 36.8986 185.262 35.4858C186.698 33.4108 188.563 32.1238 190.718 30.8594Z" fill="#0C3E2E"/>
<path id="Vector_23" d="M187.203 51.88C187.916 51.8837 187.916 51.8837 188.643 51.8876C189.676 51.9399 190.52 52.0378 191.5 52.3438C190.515 54.4565 189.178 56.111 187.227 57.3975C185.819 57.8861 184.777 57.9802 183.296 57.8126C182.35 57.2134 182.169 56.7602 181.783 55.713C181.718 54.3574 182.076 53.7927 182.906 52.7344C184.293 51.7966 185.562 51.8608 187.203 51.88Z" fill="#0C3E2E"/>
<path id="Vector_24" d="M173.141 44.5312C176.022 44.8743 177.921 45.8543 179.725 48.111C180.172 48.8281 180.172 48.8281 180.441 50.0732C180.172 51.1719 180.172 51.1719 179.342 52.124C178.219 52.7344 178.219 52.7344 177.047 52.7832C175.094 52.0507 174.24 50.697 173.41 48.877C173.08 47.3773 173.088 46.0648 173.141 44.5312Z" fill="#0C3E2E"/>
<path id="Vector_25" d="M195.016 42.9687C194.246 45.645 193.517 47.614 191.109 49.2187C190.013 49.3859 189.108 49.3079 187.984 49.2187C187.012 47.7607 186.991 47.0373 187.203 45.3125C189.487 42.898 191.886 42.8594 195.016 42.9687Z" fill="#0C3E2E"/>
<path id="Vector_26" d="M178.609 35.5469C180.588 37.0307 182.235 38.5197 182.651 41.0629C182.7 42.2031 182.641 43.124 182.101 44.1406C180.887 44.7669 179.945 44.6982 178.609 44.5312C177.349 43.4386 177.217 42.2356 177.047 40.625C177.251 39.3845 177.251 39.3845 177.584 38.1592C177.746 37.5451 177.746 37.5451 177.911 36.9186C178.219 35.9375 178.219 35.9375 178.609 35.5469Z" fill="#0C3E2E"/>
<path id="Vector_27" d="M99.7031 87.8906C99.9609 87.8906 100.219 87.8906 100.484 87.8906C101.07 89.0614 101.061 90.204 101.168 91.5039C101.214 92.0135 101.261 92.5231 101.308 93.0481C101.262 94.667 100.982 95.5311 100.094 96.875C98.4334 97.4285 97.4693 96.9505 95.7969 96.4844C96.3938 94.4926 97.2462 92.7122 98.1895 90.8691C98.335 90.5816 98.4805 90.2941 98.6304 89.9979C98.9866 89.2947 99.3446 88.5926 99.7031 87.8906Z" fill="black"/>
<path id="Vector_28" d="M100.484 103.906C100.287 106.34 99.1851 108.381 98.1406 110.547C95.157 108.569 95.157 108.569 94.6006 107.129C94.625 106.25 94.625 106.25 95.0156 105.469C95.7771 105.161 96.5531 104.89 97.335 104.639C97.7574 104.501 98.1799 104.363 98.6152 104.221C99.7031 103.906 99.7031 103.906 100.484 103.906Z" fill="black"/>
<path id="Vector_29" d="M143.062 195.703C143.191 195.961 143.32 196.219 143.453 196.484C143.111 197.51 143.111 197.51 142.281 198.437C141.094 198.612 139.957 198.55 138.766 198.437C138.508 197.793 138.25 197.148 137.984 196.484C139.835 195.356 140.953 195.165 143.062 195.703Z" fill="black"/>
<path id="Vector_30" d="M111.422 195.703C111.551 195.961 111.68 196.219 111.812 196.484C111.471 197.51 111.471 197.51 110.641 198.437C109.453 198.612 108.317 198.55 107.125 198.437C106.867 197.793 106.609 197.148 106.344 196.484C108.195 195.356 109.312 195.165 111.422 195.703Z" fill="black"/>
<path id="Vector_31" d="M122.359 196.875C123.336 197.656 123.336 197.656 123.922 198.437C123.312 199.243 123.312 199.243 122.359 200C121.045 199.932 120.025 199.809 118.844 199.219C118.6 198.218 118.6 198.218 118.453 197.266C119.698 196.643 121.008 196.669 122.359 196.875Z" fill="black"/>
<path id="Vector_32" d="M106.734 192.578C106.605 193.48 106.477 194.383 106.344 195.313C105.025 195.19 105.025 195.19 103.609 194.922C102.828 193.75 102.828 193.75 102.828 192.578C104.301 191.559 105.142 191.927 106.734 192.578Z" fill="black"/>
<path id="Vector_33" d="M94.2344 121.094C94.6211 121.223 95.0078 121.352 95.4062 121.484C95.5352 123.16 95.6641 124.836 95.7969 126.562C95.1523 126.434 94.5078 126.305 93.8437 126.172C93.46 124.589 93.4212 123.11 93.4531 121.484C93.7109 121.355 93.9687 121.227 94.2344 121.094Z" fill="black"/>
<path id="Vector_34" d="M164.645 194.458C164.999 194.611 165.354 194.764 165.719 194.922C165.59 195.824 165.461 196.727 165.328 197.656C164.426 197.527 163.523 197.398 162.594 197.266C162.336 196.621 162.078 195.977 161.812 195.313C162.877 194.248 163.135 194.081 164.645 194.458Z" fill="black"/>
<path id="Vector_35" d="M168.062 192.969C168.707 193.098 169.352 193.227 170.016 193.359C170.145 194.133 170.273 194.906 170.406 195.703C169.633 195.832 168.859 195.961 168.062 196.094C167.623 195.19 167.623 195.19 167.281 194.141C167.539 193.754 167.797 193.367 168.062 192.969Z" fill="black"/>
<path id="Vector_36" d="M88.7656 124.219C88.7656 124.863 88.7656 125.508 88.7656 126.172C88.1211 126.301 87.4766 126.43 86.8125 126.562C86.959 125.61 86.959 125.61 87.2031 124.609C87.9844 124.219 87.9844 124.219 88.7656 124.219Z" fill="black"/>
</g>
</svg>
