<svg width="201" height="200" viewBox="0 0 201 200" fill="none" xmlns="http://www.w3.org/2000/svg">
<g id="Frame" clip-path="url(#clip0_1_171)">
<g id="Vector">
<path d="M162.932 157.117C162.352 157.891 162.352 157.891 161.761 158.68C162.276 158.68 162.792 158.68 163.323 158.68C163.194 158.164 163.065 157.649 162.932 157.117Z" fill="#0C3E2E"/>
<path d="M131.292 175.086L128.948 177.039C128.898 177.322 126.262 176.765 126.214 177.039H125.432L125.042 175.867C124.122 176.072 123.287 176.333 122.405 176.673L121.526 177.039L120.354 173.914H119.573L118.011 177.039L116.839 175.867C115.276 175.867 115.276 175.867 114.397 176.258L113.714 176.649L112.151 175.086L110.979 177.039C110.198 176.258 110.198 176.258 109.466 175.941C108.636 175.867 108.636 175.867 107.757 176.429L107.073 177.039L106.292 173.914H105.511L104.876 174.891L104.339 175.867L103.948 175.086C103.167 175.086 103.167 175.086 102.337 175.867L101.604 176.649L99.2606 174.305L98.8699 176.649L97.3074 174.696L94.9637 176.649L94.5731 175.086L92.2293 177.039C92.2293 175.826 92.0186 175.339 91.4481 174.305L89.6414 176.112L88.7137 177.039L87.9324 175.086H87.1512L86.3699 176.649L84.4168 175.086L82.4637 177.039C82.0239 175.657 81.5532 174.437 80.9012 173.133L78.9481 176.649L77.3856 175.867C76.6348 176.133 76.6348 176.133 75.9207 176.6L74.6512 177.43L73.4793 173.914H72.6981L71.9168 177.43L69.5731 175.477L67.6199 177.039L66.0574 175.086L65.325 175.867C64.5901 176.738 64.5901 176.738 63.7137 176.649L63.3231 175.867C62.1512 175.867 62.1512 175.867 61.2967 176.453L60.5887 177.039L59.4168 173.914H58.6356L58.0008 174.891L57.4637 175.867L57.0731 175.086L54.3387 177.039C54.3387 176.018 54.3387 176.018 53.1668 174.305H52.3856L51.9949 176.258C51.4578 175.477 51.4578 175.477 50.8231 174.696H50.0418C49.6256 175.528 49.1467 176.01 48.4793 176.649L48.0887 175.086H47.3074L46.5262 177.039H45.7449C45.5985 175.892 45.5985 175.892 45.3543 174.696L44.5731 174.305C44.0754 175.101 43.5533 175.883 43.0106 176.649H42.2293L41.4481 175.086H40.6668L39.8856 176.649L37.9324 175.086L35.9793 177.039C35.5395 175.657 35.0688 174.437 34.4168 173.133L32.4637 176.649L30.9012 175.867C30.1505 176.133 30.1505 176.133 29.4364 176.6L28.1668 177.43L26.9949 173.914H26.2137L25.0418 177.039C24.1361 176.436 23.2815 175.947 22.3074 175.477L20.3543 177.039L19.5731 175.086H18.7918L18.0106 176.649L16.9364 176.185C15.6668 175.867 15.6668 175.867 14.7391 176.405L14.1043 177.039L12.9324 173.914H12.1512L11.5164 174.891L10.9793 175.867L10.5887 175.086L7.85432 176.649L6.68245 174.305H5.9012V177.43L4.3387 178.211C4.25453 179.249 4.17751 179.923 4.76802 180.807C5.51057 181.336 5.51057 181.336 6.65581 181.484L8.08972 181.485C8.93969 181.491 9.78935 181.495 10.6393 181.491C11.2674 181.489 11.8955 181.488 12.5236 181.49C14.2546 181.497 15.9855 181.5 17.7165 181.497C19.6099 181.494 21.5032 181.496 23.3965 181.5C27.106 181.507 30.8155 181.51 34.525 181.508C37.5732 181.506 40.6214 181.505 43.6696 181.507L44.9788 181.508L47.6132 181.51C55.8577 181.516 64.1022 181.515 72.3466 181.51C79.9123 181.506 87.478 181.509 95.0437 181.518C102.838 181.528 110.633 181.534 118.428 181.531C122.798 181.53 127.169 181.529 131.54 181.535C135.292 181.541 139.045 181.544 142.798 181.539L143.473 181.537C145.168 181.534 146.863 181.531 148.558 181.535C150.332 181.54 152.106 181.544 153.88 181.539C154.532 181.536 155.184 181.534 155.837 181.532C160.397 181.562 164.414 181.157 168.792 179.774C174.776 177.386 179.207 172.879 181.901 167.078C184.373 161.075 184.299 154.934 182 148.914C179.69 143.616 175.259 139.471 169.964 137.196C165.036 135.404 159.438 135.312 154.597 137.356C149.103 139.863 145.491 143.45 143.23 149.11C141.979 153.264 141.918 158.424 143.691 162.423L144.182 163.367C145.747 166.492 147.588 168.616 150.481 170.568C154.528 173.003 159.173 173.848 163.811 172.84C168.104 171.409 171.526 168.861 173.87 164.93C175.714 161.271 176.02 157.47 174.993 153.504C173.827 150.162 171.883 147.549 168.792 145.789C165.179 144.027 161.829 143.61 157.976 144.837C154.792 146.141 152.583 148.154 151.151 151.302C150.298 154.234 150.447 157.424 151.604 160.242C153.141 162.635 155.089 164.219 157.854 164.93C160.513 165.239 162.467 164.97 164.715 163.49C166.173 162.106 167.12 160.853 167.339 158.848C167.361 157.007 167.421 155.464 166.18 153.992C164.666 152.683 163.549 152.029 161.516 152.064C160.043 152.473 159.496 152.735 158.636 153.992C158.253 155.419 158.049 156.289 158.66 157.655C159.417 158.289 159.417 158.289 160.662 158.582L161.761 158.68L162.932 157.117L163.323 158.68H161.761V159.852L160.979 159.461L160.198 160.242L159.417 159.461L158.245 160.242L157.854 158.68L156.292 159.071V157.117V156.727L156.682 155.555L155.12 155.164L156.682 154.383V153.602L155.901 153.211L157.073 152.821L156.682 151.649L158.245 151.258L157.854 150.086L159.417 150.477L160.198 148.914L160.686 149.5C161.37 150.086 161.37 150.086 162.932 150.086L164.104 149.305L164.495 150.086L165.667 150.477V149.696H166.448V150.867H168.401L167.229 152.039L168.792 152.821L168.401 153.211L169.964 154.383L169.182 154.774V155.555L170.354 155.946L169.182 157.508L171.136 157.899L169.573 159.071L170.354 160.242L168.792 161.024L169.964 162.196L168.011 162.586L168.792 163.758H166.839L167.229 165.711L166.448 166.102L165.667 167.274L164.495 166.883L164.104 168.446H163.323L162.542 166.883L161.761 168.446L160.979 167.274L160.198 168.446C159.757 167.469 159.616 166.983 158.636 166.492L157.854 168.055L157.073 166.102L155.901 167.274L155.511 166.102L154.339 166.492L153.948 164.539L152.386 166.102L151.995 164.539L150.042 164.93C150.042 163.923 150.042 163.923 148.87 161.805L148.089 161.414V159.852L148.87 158.68L148.089 157.899L148.87 157.508V156.727L147.698 155.946L149.261 154.774L147.307 153.602L148.87 152.821L147.307 150.867H148.479V150.086L149.651 149.696L148.87 148.133H150.432L150.042 145.789L152.386 146.571L151.995 144.617L153.167 145.399L153.557 143.836L154.729 144.227L155.511 142.664L156.682 143.055L157.073 141.883C157.513 142.323 157.513 142.323 159.026 143.055L159.417 141.492L159.807 142.274L160.979 142.664L161.37 141.102L162.151 142.274L162.542 141.102H163.323V142.274L164.104 143.055L165.276 141.102L166.057 142.274L167.229 141.492L168.401 142.664L169.573 142.274V143.446H170.745L171.136 145.399L173.089 144.227L174.261 147.742H175.432H176.214C175.432 148.524 175.432 148.524 175.432 149.696L177.776 150.086V150.867L176.214 151.649L178.167 152.039L176.604 153.992L178.557 154.383L176.604 156.727L178.948 157.117C177.972 157.655 177.972 157.655 176.995 158.289V159.071L179.339 159.852C179 160.738 179 160.738 177.947 161.073L176.995 161.414L178.557 162.977L176.604 163.758L177.386 166.492H175.823L176.214 168.055H173.479V171.18L171.136 170.789V173.133L168.792 172.352V175.086C167.913 174.647 167.913 174.647 166.057 173.914V176.258L162.151 174.696L161.761 177.039L158.636 175.477L157.854 176.649H157.073C156.174 175.709 155.639 175.31 154.339 175.086L153.167 177.039L151.214 175.086C150.291 176.073 149.782 176.605 148.479 177.039L147.307 175.477L146.136 177.039C145.245 176.644 145.245 176.644 144.329 175.648L143.401 174.696L142.229 176.649L141.057 175.086L139.495 176.649C139.045 175.685 138.695 175.068 137.932 174.305L135.979 176.649L134.026 175.086L133.245 177.039L131.292 175.086Z" fill="#0C3E2E"/>
<path d="M117.997 83.8097C121.611 86.7292 124.499 90.7732 127.363 94.3993C128.326 95.5968 129.319 96.7676 130.315 97.9378C131.837 99.7246 133.318 101.536 134.775 103.376C135.718 104.543 136.689 105.684 137.664 106.824C139.15 108.565 140.584 110.337 141.985 112.147C143.529 114.138 145.136 116.061 146.795 117.957C152.905 124.944 152.905 124.944 152.863 128.213C152.681 129.849 151.667 131.089 150.432 132.117C148.998 132.596 147.621 132.792 146.136 132.508C144.304 131.483 143.021 130.192 141.717 128.577L141.157 127.9C140.6 127.225 140.047 126.546 139.495 125.867L138.56 124.731C137.468 123.402 136.384 122.068 135.3 120.734L135.131 120.527C133.537 118.571 131.925 116.632 130.291 114.71C128.78 112.934 127.309 111.132 125.861 109.304C124.705 107.872 123.51 106.474 122.313 105.076C120.995 103.529 119.758 101.938 118.572 100.286L118.011 99.6956H116.839L116.637 98.3971C116.542 97.8289 116.446 97.2607 116.35 96.6927L116.221 95.8389C115.902 93.9998 115.462 92.8551 114.104 91.4925C112.243 90.3975 110.787 90.1323 108.694 90.461C106.96 90.978 105.9 92.0098 104.973 93.5677C104.233 96.7519 105.021 100.065 105.511 103.236C105.659 104.2 105.805 105.165 105.95 106.13L106.148 107.415C106.558 111.027 106.558 111.027 105.578 112.453L104.632 113.392C103.307 114.758 102.197 116.039 101.214 117.664L102.071 117.893C104.019 118.418 105.95 118.949 107.854 119.617L107.97 120.56L108.147 121.815L108.312 123.051C109.126 126.208 111.407 127.715 113.909 129.554L115.005 130.374C115.76 130.939 116.516 131.501 117.274 132.063C118.352 132.862 119.427 133.666 120.501 134.472L121.512 135.231C122.169 135.724 122.825 136.217 123.481 136.711C124.904 137.781 126.329 138.845 127.776 139.883L128.485 140.401C129.088 140.842 129.695 141.276 130.303 141.711C132.544 143.872 133.43 147.198 134.46 150.072L134.9 151.295C135.204 152.144 135.507 152.993 135.809 153.843C136.271 155.137 136.741 156.427 137.211 157.718C137.507 158.547 137.802 159.375 138.097 160.204L138.523 161.362C139.505 164.168 140.16 167.024 138.933 169.886C137.927 171.903 136.464 173.02 134.417 173.914L126.702 172.523C124.201 170.925 123.38 167.008 122.43 164.368C122.242 163.87 122.054 163.373 121.865 162.875C120.766 159.937 119.801 156.993 118.965 153.968C116.796 144.294 116.796 144.294 110.99 136.849C108.888 135.941 106.705 135.469 104.46 135.068C100.323 134.298 96.4071 132.734 92.4614 131.308C91.1272 130.831 89.7884 130.37 88.4469 129.914C87.609 129.625 86.7713 129.335 85.9335 129.046L84.7745 128.658C81.8068 127.615 79.1218 126.339 77.5809 123.475C75.9923 119.227 77.1146 114.602 78.9261 110.6C84.2266 99.6344 93.922 86.4172 105.901 82.1175C109.901 80.826 114.56 81.4798 117.997 83.8097Z" fill="black"/>
</g>
<path id="Vector_2" d="M4.63647 192.258C70.2498 192.258 135.863 192.258 203.465 192.258C204.246 196.946 204.246 196.946 204.246 200.071C138.246 200.071 72.2458 200.071 4.24585 200.071C4.24585 195.774 4.24585 195.774 4.63647 192.258Z" fill="black"/>
<path id="Vector_3" d="M83.5785 131.701C85.0147 132.078 86.4451 132.474 87.8754 132.873C88.1515 132.949 88.4276 133.025 88.7121 133.103C102.543 136.926 102.543 136.926 104.8 140.362C105.726 142.363 106.074 144.361 106.235 146.545C106.335 147.266 106.335 147.266 106.438 148.002C106.616 150.391 106.179 152.475 104.672 154.357C102.023 156.515 98.9931 158.171 96.0296 159.851C95.3554 160.236 94.6811 160.622 94.007 161.008C93.5484 161.27 93.0897 161.532 92.6309 161.794C90.3702 163.085 88.121 164.396 85.8734 165.71C85.3057 166.041 85.3057 166.041 84.7266 166.379C82.7019 167.56 80.68 168.746 78.6606 169.937C78.0258 170.31 78.0258 170.31 77.3783 170.69C76.5702 171.165 75.7628 171.642 74.9563 172.12C69.1632 175.52 69.1632 175.52 65.6097 175.061C63.1562 174.284 61.7959 173.059 60.2386 171.057C59.2897 168.969 59.1328 166.909 59.7015 164.685C61.1466 161.089 64.9729 159.153 68.222 157.409C69.0184 156.97 69.8144 156.531 70.61 156.091C71.0122 155.869 71.4143 155.648 71.8286 155.419C73.7305 154.358 75.6033 153.249 77.475 152.136C77.8263 151.927 78.1777 151.718 78.5397 151.503C79.2307 151.093 79.9215 150.682 80.6122 150.271C82.2328 149.309 83.8577 148.354 85.4828 147.399C85.7665 147.233 86.0501 147.066 86.3424 146.894C86.9836 146.517 87.6248 146.14 88.266 145.764C88.026 143.969 87.5501 142.414 86.8973 140.727C86.8024 140.48 86.7076 140.232 86.6099 139.978C86.3095 139.196 86.0062 138.415 85.7025 137.634C85.398 136.846 85.0941 136.058 84.7909 135.269C84.5174 134.558 84.2421 133.849 83.9667 133.139C83.5785 132.092 83.5785 132.092 83.5785 131.701Z" fill="black"/>
<path id="Vector_4" d="M142.912 64.7755C144.946 66.4423 146.351 68.0335 147.176 70.551C147.917 72.6195 149.047 73.3748 150.868 74.5198C153.581 76.2829 156.148 78.4346 157.405 81.4641C157.552 82.758 157.552 82.758 157.405 83.8078C156.398 84.8151 155.953 84.7283 154.549 84.76C147.546 84.6343 141.063 79.7537 136.382 74.9211C136.154 74.6794 136.154 74.6794 135.921 74.4328C137.904 78.4893 141.259 81.6177 144.905 84.1984C143.799 86.6546 141.886 88.0031 139.437 89.0324C135.423 90.3373 131.386 90.1378 127.584 88.3183C124.045 86.2575 121.886 83.5545 120.735 79.633C119.852 75.5755 120.309 72.0994 122.331 68.4666C124.561 65.0689 127.473 63.0431 131.444 62.0839C135.678 61.4185 139.429 62.2705 142.912 64.7755ZM135.14 73.2609C135.53 74.0422 135.53 74.0422 135.53 74.0422L135.14 73.2609Z" fill="black"/>
<path id="Vector_5" d="M113.413 87.9449C115.822 90.24 115.97 93.8282 116.408 96.969C116.476 97.4359 116.543 97.9027 116.613 98.3838C116.755 99.3665 116.895 100.349 117.033 101.333C117.245 102.836 117.463 104.338 117.681 105.84C117.819 106.798 117.956 107.755 118.092 108.712C118.157 109.16 118.222 109.608 118.288 110.07C118.347 110.49 118.406 110.91 118.467 111.342C118.519 111.709 118.571 112.076 118.624 112.454C118.742 113.602 118.753 114.722 118.735 115.875C118.956 115.976 119.177 116.078 119.405 116.183C120.381 116.7 121.204 117.301 122.08 117.976C122.421 118.237 122.762 118.499 123.113 118.768C123.473 119.046 123.833 119.324 124.204 119.61C124.948 120.181 125.693 120.752 126.437 121.324C126.795 121.598 127.152 121.873 127.521 122.156C128.688 123.049 129.862 123.932 131.04 124.81C132.682 126.039 134.318 127.275 135.947 128.521C136.161 128.684 136.376 128.847 136.597 129.015C139.302 131.091 139.302 131.091 139.829 132.671C139.98 134.519 140.017 135.428 139.169 137.09C137.856 138.617 136.991 139.238 134.97 139.459C132.262 139.174 130.356 137.547 128.281 135.919C127.693 135.463 127.105 135.008 126.517 134.553C126.206 134.312 125.896 134.071 125.576 133.822C123.848 132.485 122.109 131.163 120.371 129.839C120.022 129.574 119.674 129.308 119.315 129.034C117.102 127.347 114.878 125.678 112.631 124.037C110.165 122.069 109.018 120.577 108.558 117.467C108.487 117 108.417 116.533 108.345 116.052C108.235 115.295 108.235 115.295 108.124 114.523C108.046 113.995 107.969 113.467 107.891 112.94C107.728 111.832 107.567 110.724 107.408 109.616C107.206 108.211 106.998 106.807 106.788 105.404C106.626 104.312 106.467 103.22 106.31 102.128C106.199 101.363 106.084 100.598 105.97 99.8342C104.74 91.1515 104.74 91.1515 106.196 88.9923C108.233 86.877 110.801 86.7842 113.413 87.9449Z" fill="black"/>
<g id="Vector_6">
<path d="M42.2538 30.2628C44.6837 32.1733 45.895 34.6083 46.8589 37.5001C47.1803 41.8933 46.851 45.0519 44.0269 48.5352C41.4222 51.3291 38.4847 52.7124 34.6519 52.8809C30.9478 52.7896 28.0223 51.4954 25.3532 48.9411C22.6632 45.7758 21.9425 42.3285 22.2496 38.2813C23.085 34.3374 25.3359 31.6935 28.4996 29.2969C32.5622 26.6951 38.4464 27.7268 42.2538 30.2628ZM27.4009 33.9112C25.5616 36.1915 24.7486 38.2588 24.8466 41.1896C25.2176 43.8858 26.5776 46.1687 28.4996 48.0469C31.3355 49.7818 34.0105 50.5257 37.3008 49.7742C40.3972 48.723 42.4017 46.6875 43.9292 43.8233C44.4453 40.5331 44.5609 37.5589 42.5621 34.7657C40.8047 32.7309 38.733 30.9963 35.9779 30.7664C32.2048 30.6823 30.0026 31.1256 27.4009 33.9112Z" fill="#FFBA00"/>
<path d="M27.4009 33.9112C25.5616 36.1915 24.7486 38.2588 24.8466 41.1896C25.2176 43.8858 26.5776 46.1687 28.4996 48.0469C31.3355 49.7818 34.0105 50.5257 37.3008 49.7742C40.3972 48.723 42.4017 46.6875 43.9292 43.8233C44.4453 40.5331 44.5609 37.5589 42.5621 34.7657C40.8047 32.7309 38.733 30.9963 35.9779 30.7664C32.2048 30.6823 30.0026 31.1256 27.4009 33.9112Z" fill="#FFBA00"/>
</g>
</g>
<defs>
<clipPath id="clip0_1_171">
<rect width="200" height="200" fill="white" transform="translate(0.375)"/>
</clipPath>
</defs>
</svg>
