<svg width="201" height="200" viewBox="0 0 201 200" fill="none" xmlns="http://www.w3.org/2000/svg">
<g id="Frame" clip-path="url(#clip0_1_180)">
<path id="Vector" d="M45.5466 48.828C46.7891 49.8008 47.9468 50.8377 49.0622 51.953C49.0253 52.5 48.9631 53.0453 48.8913 53.5888C48.4282 57.9633 48.0123 62.3597 50.8521 66.0338C51.7262 67.2379 51.8387 68.4756 51.7966 69.9218C51.184 73.2022 49.9065 75.7976 47.1091 77.7343C45.7523 78.1865 44.6244 78.1517 43.2028 78.1249C43.1716 75.4148 43.2043 72.7189 43.3432 70.0118C43.3683 69.4907 43.3932 68.9696 43.418 68.4485C43.4559 67.6546 43.4963 66.8613 43.5444 66.0679C43.7344 62.871 43.8663 60.5144 42.031 57.8124C40.1249 55.9993 38.528 55.7175 35.9778 55.7509C34.5153 55.9129 33.7367 56.444 32.656 57.4218C31.1792 59.3774 30.6674 60.8045 30.5509 63.2241C30.5158 63.9309 30.5158 63.9309 30.4799 64.6519C30.4563 65.1634 30.4327 65.6748 30.4083 66.2017C30.3827 66.7359 30.357 67.27 30.3312 67.8042C30.2773 68.9278 30.2246 70.0515 30.1727 71.1753C30.12 72.3156 30.0658 73.4558 30.0102 74.5959C29.832 78.2456 29.6719 81.8954 29.531 85.5468C29.5148 85.9276 29.4986 86.3085 29.4819 86.7009C29.4448 87.6295 29.4186 88.5575 29.3982 89.4866C29.3786 90.1923 29.3786 90.1923 29.3586 90.9123C29.5239 92.1351 29.7163 92.5942 30.3449 93.6013C31.0935 94.9218 31.0935 94.9218 31.0437 95.9627C30.7085 96.8596 30.3587 97.7196 29.9368 98.5793C29.7087 99.051 29.7087 99.051 29.476 99.5322C29.3169 99.8558 29.1578 100.179 28.9938 100.513C26.9025 104.322 26.9025 104.322 26.0291 108.459C26.5371 109.693 27.2577 110.522 28.1394 111.523C28.4998 111.941 28.8593 112.359 29.2181 112.778C29.4016 112.991 29.5851 113.204 29.7741 113.424C30.7726 114.608 31.7028 115.845 32.6412 117.077C33.8443 118.655 35.0606 120.222 36.2831 121.785C43.086 130.492 43.4995 134.992 42.2186 145.879C42.1162 146.764 42.0139 147.649 41.9118 148.535C41.6979 150.383 41.482 152.23 41.2645 154.077C40.9869 156.437 40.7152 158.797 40.4451 161.158C40.2355 162.983 40.0225 164.809 39.8086 166.634C39.7071 167.504 39.6067 168.374 39.5073 169.244C39.3679 170.462 39.2238 171.679 39.0787 172.897C39.039 173.251 38.9994 173.605 38.9586 173.97C38.2618 179.683 38.2618 179.683 36.6003 181.811C36.2068 182.114 36.2068 182.114 35.8054 182.422C35.4134 182.736 35.4134 182.736 35.0134 183.057C32.7092 184.613 30.7136 184.647 27.9685 184.375C25.4514 183.752 24.27 182.273 22.9407 180.125C21.4369 177.3 22.1285 173.933 22.5097 170.877C22.5735 170.344 22.5735 170.344 22.6386 169.801C22.7304 169.037 22.8232 168.273 22.9168 167.509C23.0648 166.299 23.2101 165.089 23.3546 163.878C23.7656 160.439 24.1817 157.001 24.5996 153.562C24.8556 151.454 25.1085 149.345 25.3594 147.236C25.4555 146.434 25.5528 145.632 25.6515 144.831C25.7893 143.712 25.923 142.592 26.0559 141.471C26.0974 141.142 26.139 140.813 26.1819 140.473C26.4113 138.495 26.6218 136.573 25.5668 134.788C25.381 134.57 25.1951 134.353 25.0037 134.129C24.796 133.881 24.5883 133.633 24.3743 133.377C24.1505 133.118 23.9266 132.859 23.696 132.593C23.2275 132.034 22.7596 131.475 22.2922 130.916C22.0606 130.641 21.8289 130.366 21.5903 130.082C20.6997 129.011 19.8529 127.914 19.0085 126.807C18.6983 126.4 18.3881 125.994 18.0686 125.575C17.9049 125.361 17.7413 125.146 17.5726 124.925C16.4958 123.521 15.408 122.124 14.321 120.727C14.0872 120.427 13.8535 120.127 13.6126 119.817C12.1925 117.993 10.7688 116.173 9.34052 114.355C9.16954 114.138 8.99856 113.92 8.82239 113.695C7.92377 112.552 7.02104 111.412 6.11329 110.275C2.50672 105.748 0.0487669 102.535 0.624703 96.4843C1.86511 92.619 4.64807 90.0542 7.65595 87.4999C9.93399 85.5512 11.9984 83.5638 13.906 81.2499C14.2791 80.8111 14.2791 80.8111 14.6597 80.3634C19.5249 74.5043 22.174 68.2253 23.9579 60.9139C25.394 55.2351 28.0433 51.4771 33.0466 48.4374C36.6909 46.3109 42.062 46.4778 45.5466 48.828Z" fill="black"/>
<path id="Vector_2" d="M72.5 89.8438C75.1259 90.9494 76.618 92.2893 78.3594 94.5312C78.6172 94.1445 78.875 93.7578 79.1406 93.3594C78.7539 93.2305 78.3672 93.1016 77.9688 92.9688C77.9199 92.041 77.9199 92.041 77.9688 91.0156C78.2266 90.7578 78.4844 90.5 78.75 90.2344C80.5822 90.3722 82.183 90.8067 83.898 91.4458C84.3567 91.6153 84.8154 91.7848 85.288 91.9595C85.7805 92.1447 86.273 92.3301 86.7654 92.5156C87.2763 92.706 87.7873 92.8962 88.2983 93.0863C89.3643 93.4835 90.4296 93.8826 91.4944 94.2832C92.8597 94.7967 94.2265 95.3057 95.5939 95.8134C96.6471 96.2048 97.6995 96.5984 98.7516 96.9926C99.2555 97.1812 99.7597 97.3692 100.264 97.5566C100.967 97.8181 101.669 98.0826 102.37 98.3474C102.969 98.572 102.969 98.572 103.581 98.8012C104.531 99.2188 104.531 99.2188 105.312 100C105.435 100.977 105.435 100.977 105.312 101.953C104.141 102.734 104.141 102.734 102.969 102.734C101.752 107.2 100.637 111.687 99.5508 116.187C99.3886 116.856 99.2263 117.526 99.064 118.195C98.6722 119.812 98.2812 121.43 97.8906 123.047C100.621 121.977 103.351 120.908 106.08 119.838C107.006 119.475 107.933 119.112 108.859 118.749C110.2 118.224 111.541 117.698 112.882 117.172C113.531 116.918 113.531 116.918 114.193 116.659C116.045 115.933 117.895 115.204 119.738 114.458C120.014 114.346 120.29 114.235 120.575 114.119C121.276 113.835 121.977 113.548 122.677 113.261C123.672 112.891 123.672 112.891 124.453 112.891C124.34 112.544 124.228 112.198 124.111 111.841C124.062 110.547 124.062 110.547 124.57 109.993C125.182 109.527 125.794 109.06 126.406 108.594C126.914 109.577 127.418 110.562 127.92 111.548C128.134 111.961 128.134 111.961 128.352 112.382C129.219 114.092 129.848 115.717 130.312 117.578C128.572 117.771 128.572 117.771 126.797 117.969C126.668 117.453 126.539 116.938 126.406 116.406C116.698 121.351 116.698 121.351 107.099 126.502C103.411 128.537 99.6759 130.482 95.9375 132.422C96.1283 132.595 96.3192 132.767 96.5158 132.945C97.1094 133.594 97.1094 133.594 97.2314 134.595C97.1094 135.547 97.1094 135.547 96.3281 136.328C94.3747 136.192 92.6938 135.677 90.8711 134.986C90.4856 134.841 90.4856 134.841 90.0923 134.693C89.2498 134.375 88.409 134.054 87.5681 133.733C86.9771 133.509 86.3861 133.286 85.795 133.062C84.2421 132.475 82.6906 131.885 81.1392 131.294C79.8809 130.815 78.6218 130.338 77.3625 129.862C73.7858 128.509 70.2099 127.154 66.6406 125.781C66.2367 125.627 65.8328 125.473 65.4166 125.315C64.8887 125.11 64.8887 125.11 64.35 124.901C64.0523 124.787 63.7546 124.672 63.4478 124.554C62.7344 124.219 62.7344 124.219 61.9531 123.438C61.9043 122.485 61.9043 122.485 62.3438 121.484C63.0273 121.179 63.0273 121.179 63.8574 120.923C65.0673 120.524 65.4115 120.382 66.25 119.36C68.0502 112.947 64.6352 106.485 62.2152 100.675C61.9531 100 61.9531 100 61.9531 99.6094C63.2422 99.6094 64.5312 99.6094 65.8594 99.6094C66.3575 100.772 66.8536 101.936 67.3486 103.101C67.4879 103.425 67.6271 103.75 67.7705 104.084C68.6718 106.209 69.4624 108.345 70.1562 110.547C71.6173 108.687 72.6613 106.623 73.7695 104.541C73.9911 104.139 74.2126 103.737 74.4409 103.323C74.6484 102.933 74.8558 102.542 75.0696 102.139C75.2605 101.785 75.4515 101.431 75.6483 101.066C76.0981 99.7606 75.9823 98.9777 75.625 97.6562C75.0164 96.8887 75.0164 96.8887 74.2578 96.2402C72.4525 94.3426 72.4706 92.3672 72.5 89.8438Z" fill="#BB8A52"/>
<path id="Vector_3" d="M71.0659 18.9973C73.5176 21.0091 75.366 23.5577 76.4065 26.5626C76.4065 26.9493 76.4065 27.336 76.4065 27.7344C76.7479 27.8357 77.0893 27.9369 77.441 28.0411C82.2279 29.7762 87.4148 34.1314 89.6877 38.6719C89.9519 40.6344 89.9519 40.6344 89.2437 41.6566C87.5445 42.8962 85.0302 42.39 83.0471 42.1876C77.0171 40.8554 71.2391 37.6663 66.6409 33.5938C66.1943 33.2264 65.7468 32.86 65.2981 32.4952C64.5337 31.8426 63.828 31.1839 63.1252 30.4688C65.6353 34.9869 69.8158 38.909 74.0627 41.7969C73.1229 44.6671 70.762 46.5371 68.1439 47.9127C63.6961 49.8039 58.9198 50.4538 54.2599 48.819C49.3507 46.7389 46.2606 43.8141 43.9572 38.9634C42.3466 34.7182 42.4566 29.9969 44.0319 25.7813C45.9982 21.4144 49.0229 18.4286 53.3779 16.4521C59.5707 14.1093 65.6753 15.2166 71.0659 18.9973ZM61.9534 28.1251C62.344 28.9063 62.344 28.9063 62.344 28.9063L61.9534 28.1251ZM62.344 28.9063C62.7346 29.6876 62.7346 29.6876 62.7346 29.6876L62.344 28.9063Z" fill="black"/>
<path id="Vector_4" d="M40.395 57.4951C41.5056 58.4152 41.8763 59.2095 42.4214 60.5468C42.5152 61.6164 42.5495 62.5828 42.5175 63.6474C42.5129 63.9499 42.5082 64.2524 42.5035 64.564C42.4846 65.5691 42.4546 66.5734 42.4214 67.5781C42.41 67.932 42.3987 68.2858 42.387 68.6504C42.3108 70.9041 42.215 73.1565 42.1091 75.4089C42.0542 76.5827 42.0031 77.7566 41.9522 78.9306C41.9181 79.6793 41.8837 80.428 41.8492 81.1767C41.8266 81.7015 41.8266 81.7015 41.8035 82.2369C41.685 84.6758 41.685 84.6758 41.2495 85.5468C41.6569 85.5731 41.6569 85.5731 42.0724 85.6C45.5752 85.8284 49.0768 86.0726 52.5776 86.3281C52.876 86.3498 53.1744 86.3716 53.4818 86.3939C55.3227 86.5289 57.163 86.6701 59.0029 86.8182C59.5973 86.8654 60.1918 86.9111 60.7865 86.9552C68.6338 87.5405 68.6338 87.5405 70.7417 89.6484C71.7397 91.3117 71.8506 92.6128 71.7183 94.5312C70.9083 96.3642 69.5986 97.5442 67.812 98.4375C64.5652 98.5626 61.3408 98.2307 58.109 97.9522C57.5103 97.9015 56.9116 97.8508 56.3129 97.8002C55.063 97.6942 53.8131 97.587 52.5632 97.479C50.9713 97.3417 49.3791 97.2077 47.7869 97.0746C46.5518 96.971 45.3168 96.8652 44.082 96.7589C43.4954 96.7087 42.9088 96.6592 42.3221 96.6104C33.4631 95.8708 33.4631 95.8708 31.6426 94.1711C30.2822 92.3029 30.4178 90.4135 30.5073 88.1836C30.5206 87.5188 30.5206 87.5188 30.5341 86.8407C30.5734 85.2366 30.6362 83.6344 30.7026 82.0312C30.7296 81.3444 30.7565 80.6575 30.7833 79.9707C30.9674 75.3439 31.1718 70.7179 31.4357 66.0949C31.4793 65.3168 31.5178 64.5385 31.5558 63.7602C31.5809 63.3478 31.606 62.9355 31.6319 62.5106C31.6508 62.1707 31.6697 61.8308 31.6892 61.4806C32.1006 59.4075 33.3144 58.2108 34.9995 57.0312C36.882 56.4037 38.6072 56.7402 40.395 57.4951Z" fill="black"/>
<path id="Vector_5" d="M44.375 21.875C44.135 23.2608 43.7652 24.4828 43.2275 25.7812C43.0951 26.1035 42.9627 26.4258 42.8262 26.7578C42.6261 27.2412 42.6261 27.2412 42.4219 27.7344C42.3408 28.0486 42.2597 28.3628 42.1762 28.6865C41.4906 29.9679 40.6347 30.4695 39.4613 31.2973C38.345 32.1636 37.3653 33.1323 36.3824 34.1431C36.1013 34.4308 36.1013 34.4308 35.8144 34.7244C35.0372 35.5228 34.2631 36.324 33.4928 37.129C29.763 41.0154 26.1683 44.0457 20.5957 44.2627C17.0321 44.1699 13.8662 42.9791 11.1719 40.625C10.186 39.4212 9.64578 38.3184 9.51172 36.7432C9.54395 36.4773 9.57617 36.2114 9.60938 35.9375C9.85913 36.0422 10.1089 36.147 10.3662 36.2549C10.761 36.408 11.1558 36.561 11.5625 36.7187C11.8228 36.8356 12.0832 36.9524 12.3514 37.0728C14.3861 37.8995 15.6877 38.0012 17.7347 37.1689C20.6757 35.6278 22.8748 33.302 25.0925 30.8746C30.516 24.9423 35.7813 20.1563 44.375 21.875Z" fill="black"/>
<path id="Vector_6" d="M187.734 166.016C189.495 169.92 189.716 173.217 188.516 177.344C188.991 177.384 189.466 177.424 189.956 177.466C191.046 177.558 191.629 177.727 192.578 178.302C193.698 178.968 194.641 179.204 195.913 179.468C197.812 179.92 199.195 180.29 200.625 181.641C200.771 182.715 200.771 182.715 200.625 183.594C196.879 185.349 192.234 184.979 188.223 184.546C186.617 184.379 185.201 184.446 183.607 184.662C180.013 185.054 176.407 184.815 172.891 183.984C172.5 183.594 172.5 183.594 172.28 182.715C172.543 181.432 172.766 181.304 173.818 180.591C175.39 179.695 176.885 179.37 178.657 179.088C179.593 178.946 179.593 178.946 180.508 178.296C182.031 177.42 183.661 177.441 185.391 177.344C186.16 174.583 186.172 172.359 185.781 169.531C185.743 169.241 185.705 168.95 185.665 168.651C185.58 168.032 185.487 167.414 185.391 166.797C186.855 166.016 186.855 166.016 187.734 166.016Z" fill="#BB8A52"/>
<path id="Vector_7" d="M149.453 166.016C150.234 166.406 150.234 166.406 150.567 167.148C151.657 170.637 151.859 173.873 150.625 177.344C151.1 177.384 151.576 177.424 152.065 177.466C153.153 177.558 153.731 177.723 154.673 178.302C156.208 179.202 157.815 179.388 159.548 179.71C160.925 180.121 161.696 180.659 162.734 181.641C163.101 182.471 163.101 182.471 163.125 183.203C161.278 185.05 157.575 184.818 155.093 184.839C153.493 184.816 151.923 184.715 150.332 184.546C148.726 184.379 147.31 184.446 145.716 184.662C142.076 185.059 138.573 184.705 135 183.984C134.771 183.06 134.771 183.06 134.609 182.031C135.78 180.222 137.729 179.866 139.688 179.297C141.251 178.789 141.251 178.789 142.787 178.207C144.428 177.543 145.694 177.208 147.5 177.344C148.434 174.074 148.519 171.671 147.5 168.359C147.5 167.844 147.5 167.328 147.5 166.797C148.428 166.382 148.428 166.382 149.453 166.016Z" fill="#BB8A52"/>
<path id="Vector_8" d="M162.734 157.813C161.643 162.061 160.163 165.383 156.484 167.969C155.063 168.442 154.071 168.514 152.578 168.359C151.183 167.207 150.319 166.367 150.112 164.551C150.291 162.693 151.012 161.62 152.418 160.397C155.341 158.333 159.196 157.566 162.734 157.813Z" fill="#0C3E2E"/>
<path id="Vector_9" d="M174.062 156.25C177.807 156.397 181.77 156.881 184.683 159.448C185.807 160.736 186.239 161.906 186.303 163.612C186.062 165.158 185.393 165.776 184.219 166.797C182.535 167.506 181.193 167.048 179.531 166.406C177.663 165.057 176.72 163.876 175.698 161.768C175.47 161.309 175.242 160.851 175.007 160.379C174.433 158.934 174.214 157.785 174.062 156.25Z" fill="#0C3E2E"/>
<path id="Vector_10" d="M136.172 156.25C139.969 156.399 143.969 156.849 146.792 159.619C147.816 160.76 148.248 161.431 148.428 162.988C148.232 164.947 147.755 165.465 146.328 166.797C144.644 167.506 143.302 167.048 141.641 166.406C139.772 165.057 138.83 163.876 137.808 161.768C137.58 161.309 137.351 160.851 137.116 160.379C136.542 158.934 136.323 157.785 136.172 156.25Z" fill="#0C3E2E"/>
<path id="Vector_11" d="M200.625 157.813C199.641 161.87 197.974 165.607 194.375 167.969C192.954 168.442 191.962 168.514 190.469 168.359C189.074 167.207 188.209 166.367 188.003 164.551C188.182 162.693 188.903 161.62 190.309 160.397C193.232 158.333 197.087 157.566 200.625 157.813Z" fill="#0C3E2E"/>
<path id="Vector_12" d="M152.188 149.219C153.583 152.555 154.168 155.167 152.963 158.653C152.578 159.375 152.578 159.375 151.407 160.156C149.981 160.342 149.232 160.241 147.94 159.595C146.893 158.332 146.848 157.605 146.948 156.003C147.353 153.69 149.471 149.219 152.188 149.219Z" fill="#0C3E2E"/>
<path id="Vector_13" d="M190.079 149.219C191.212 151.891 191.663 154.526 191.25 157.422C190.691 158.517 190.166 159.288 189.297 160.156C187.773 160.289 186.679 160.234 185.391 159.375C184.652 157.897 184.757 156.293 185 154.688C185.812 152.955 187.933 149.219 190.079 149.219Z" fill="#0C3E2E"/>
<path id="Vector_14" d="M188.516 126.172C189.16 126.816 189.805 127.461 190.469 128.125C190.082 128.705 190.082 128.705 189.688 129.297C188.931 129.028 188.931 129.028 188.125 128.516C187.832 127.49 187.832 127.49 187.734 126.562C187.992 126.434 188.25 126.305 188.516 126.172Z" fill="black"/>
<path id="Vector_15" d="M185 122.656C186.12 122.88 186.508 122.993 187.344 123.828C187.197 124.658 187.197 124.658 186.953 125.391C186.566 125.391 186.18 125.391 185.781 125.391C185.098 124.683 185.098 124.683 184.609 123.828C184.738 123.441 184.867 123.055 185 122.656Z" fill="black"/>
<path id="Vector_16" d="M182.266 118.75C182.91 119.266 183.555 119.781 184.219 120.312C183.961 120.828 183.703 121.344 183.438 121.875C183.051 121.746 182.664 121.617 182.266 121.484C181.802 120.483 181.802 120.483 181.484 119.531C181.742 119.273 182 119.016 182.266 118.75Z" fill="black"/>
<path id="Vector_17" d="M165.859 108.203C166.762 108.461 167.664 108.719 168.594 108.984C168.465 109.5 168.336 110.016 168.203 110.547C166.348 110.205 166.348 110.205 165.469 109.766C165.598 109.25 165.727 108.734 165.859 108.203Z" fill="black"/>
<path id="Vector_18" d="M194.375 134.375C194.933 135.295 195.19 135.735 195.01 136.816C194.889 137.155 194.889 137.155 194.766 137.5C193.594 137.109 193.594 137.109 192.812 135.938C192.812 135.551 192.812 135.164 192.812 134.766C193.594 134.375 193.594 134.375 194.375 134.375Z" fill="black"/>
<path id="Vector_19" d="M170.156 132.812C170.543 132.941 170.93 133.07 171.328 133.203C171.792 134.204 171.792 134.204 172.109 135.156C171.594 135.285 171.078 135.414 170.547 135.547C169.375 134.082 169.375 134.082 169.375 133.203C169.633 133.074 169.891 132.945 170.156 132.812Z" fill="black"/>
<path id="Vector_20" d="M157.656 132.422C158.462 132.69 158.462 132.69 159.219 133.203C159.512 134.033 159.512 134.033 159.609 134.766C159.094 134.895 158.578 135.023 158.047 135.156C156.875 133.691 156.875 133.691 156.875 132.812C157.133 132.684 157.391 132.555 157.656 132.422Z" fill="black"/>
<path id="Vector_21" d="M168.984 118.75C169.766 119.141 170.547 119.531 171.328 119.922C171.199 120.438 171.07 120.953 170.938 121.484C170.205 121.387 170.205 121.387 169.375 121.094C168.862 120.337 168.862 120.337 168.594 119.531C168.723 119.273 168.852 119.016 168.984 118.75Z" fill="black"/>
<path id="Vector_22" d="M139.297 118.75C141.152 119.092 141.152 119.092 142.031 119.531C141.902 120.047 141.773 120.562 141.641 121.094C139.785 120.801 139.785 120.801 138.906 119.922C139.035 119.535 139.164 119.148 139.297 118.75Z" fill="black"/>
<path id="Vector_23" d="M178.359 115.625C179.384 116.035 179.841 116.269 180.41 117.236C180.507 117.478 180.604 117.72 180.703 117.969C179.995 118.237 179.995 118.237 179.141 118.359C178.433 117.896 178.433 117.896 177.969 117.188C178.091 116.333 178.091 116.333 178.359 115.625Z" fill="black"/>
<path id="Vector_24" d="M174.453 112.891C175.405 113.184 175.405 113.184 176.406 113.672C176.724 114.502 176.724 114.502 176.797 115.234C175.234 115.234 175.234 115.234 174.062 114.453C174.191 113.938 174.32 113.422 174.453 112.891Z" fill="black"/>
<path id="Vector_25" d="M170.547 110.156C171.32 110.543 172.094 110.93 172.891 111.328C172.762 111.844 172.633 112.359 172.5 112.891C171.711 112.656 170.929 112.393 170.156 112.109C170.027 111.852 169.898 111.594 169.766 111.328C170.023 110.941 170.281 110.555 170.547 110.156Z" fill="black"/>
<path id="Vector_26" d="M161.172 106.641C162.074 106.77 162.977 106.898 163.906 107.031C163.906 107.676 163.906 108.32 163.906 108.984C163.004 108.727 162.102 108.469 161.172 108.203C161.172 107.688 161.172 107.172 161.172 106.641Z" fill="black"/>
<path id="Vector_27" d="M176.797 144.922C177.055 145.051 177.312 145.18 177.578 145.312C177.822 146.509 177.822 146.509 177.969 147.656C177.453 147.785 176.938 147.914 176.406 148.047C176.148 147.273 175.891 146.5 175.625 145.703C176.012 145.445 176.398 145.188 176.797 144.922Z" fill="black"/>
<path id="Vector_28" d="M160.391 135.938C160.648 135.938 160.906 135.938 161.172 135.938C161.559 136.711 161.945 137.484 162.344 138.281C161.57 138.668 161.57 138.668 160.781 139.062C160.395 138.289 160.008 137.516 159.609 136.719C159.867 136.461 160.125 136.203 160.391 135.938Z" fill="black"/>
<path id="Vector_29" d="M181.094 132.422C181.826 132.495 181.826 132.495 182.656 132.812C183.145 133.813 183.145 133.813 183.438 134.766C182.922 134.895 182.406 135.023 181.875 135.156C181.265 134.448 181.265 134.448 180.703 133.594C180.832 133.207 180.961 132.82 181.094 132.422Z" fill="black"/>
<path id="Vector_30" d="M191.25 130.078C192.056 130.762 192.056 130.762 192.812 131.641C192.715 132.52 192.715 132.52 192.422 133.203C192.035 133.203 191.648 133.203 191.25 133.203C190.992 132.43 190.734 131.656 190.469 130.859C190.727 130.602 190.984 130.344 191.25 130.078Z" fill="black"/>
<path id="Vector_31" d="M167.031 129.297C167.764 129.395 167.764 129.395 168.594 129.688C169.082 130.493 169.082 130.493 169.375 131.25C168.602 131.637 168.602 131.637 167.812 132.031C167.202 131.323 167.202 131.323 166.641 130.469C166.77 130.082 166.898 129.695 167.031 129.297Z" fill="black"/>
<path id="Vector_32" d="M154.531 128.906C155.766 129.441 156.091 129.683 156.875 130.859C156.102 131.246 156.102 131.246 155.312 131.641C154.797 130.996 154.281 130.352 153.75 129.688C154.008 129.43 154.266 129.172 154.531 128.906Z" fill="black"/>
<path id="Vector_33" d="M163.906 125.781C164.93 126.191 165.388 126.426 165.957 127.393C166.054 127.634 166.15 127.876 166.25 128.125C165.542 128.394 165.542 128.394 164.688 128.516C163.979 128.052 163.979 128.052 163.516 127.344C163.638 126.489 163.638 126.489 163.906 125.781Z" fill="black"/>
<path id="Vector_34" d="M176.016 125C176.772 125.293 176.772 125.293 177.578 125.781C177.871 126.611 177.871 126.611 177.969 127.344C177.453 127.473 176.938 127.602 176.406 127.734C176.02 127.09 175.633 126.445 175.234 125.781C175.492 125.523 175.75 125.266 176.016 125Z" fill="black"/>
<path id="Vector_35" d="M160.781 122.656C161.426 123.043 162.07 123.43 162.734 123.828C162.605 124.344 162.477 124.859 162.344 125.391C161.611 125.293 161.611 125.293 160.781 125C160.293 124.194 160.293 124.194 160 123.438C160.258 123.18 160.516 122.922 160.781 122.656Z" fill="black"/>
<path id="Vector_36" d="M156.484 120.312C157.412 120.435 157.412 120.435 158.438 120.703C158.695 121.09 158.953 121.477 159.219 121.875C159.09 122.133 158.961 122.391 158.828 122.656C157.9 122.534 157.9 122.534 156.875 122.266C156.617 121.879 156.359 121.492 156.094 121.094C156.223 120.836 156.352 120.578 156.484 120.312Z" fill="black"/>
<path id="Vector_37" d="M161.172 114.453C161.816 114.582 162.461 114.711 163.125 114.844C163.254 115.359 163.383 115.875 163.516 116.406C162.344 116.797 162.344 116.797 161.489 116.431C161.256 116.294 161.022 116.157 160.781 116.016C160.91 115.5 161.039 114.984 161.172 114.453Z" fill="black"/>
<path id="Vector_38" d="M139.297 113.672C140.199 113.801 141.102 113.93 142.031 114.062C142.031 114.578 142.031 115.094 142.031 115.625C141.129 115.496 140.227 115.367 139.297 115.234C139.297 114.719 139.297 114.203 139.297 113.672Z" fill="black"/>
<path id="Vector_39" d="M167.031 152.734C167.547 152.734 168.062 152.734 168.594 152.734C168.723 153.637 168.852 154.539 168.984 155.469C168.34 155.34 167.695 155.211 167.031 155.078C167.031 154.305 167.031 153.531 167.031 152.734Z" fill="black"/>
<path id="Vector_40" d="M164.297 144.141C165.103 144.312 165.103 144.312 165.859 144.531C165.988 145.176 166.117 145.82 166.25 146.484C165.734 146.613 165.219 146.742 164.688 146.875C164.43 146.102 164.172 145.328 163.906 144.531C164.035 144.402 164.164 144.273 164.297 144.141Z" fill="black"/>
<path id="Vector_41" d="M174.453 141.016C175.259 141.187 175.259 141.187 176.016 141.406C176.145 142.051 176.273 142.695 176.406 143.359C175.891 143.488 175.375 143.617 174.844 143.75C174.586 142.977 174.328 142.203 174.062 141.406C174.191 141.277 174.32 141.148 174.453 141.016Z" fill="black"/>
<path id="Vector_42" d="M163.516 139.844C164.086 140.878 164.297 141.365 164.297 142.578C163.91 142.707 163.523 142.836 163.125 142.969C161.953 141.113 161.953 141.113 161.953 140.234C162.734 139.844 162.734 139.844 163.516 139.844Z" fill="black"/>
<path id="Vector_43" d="M195.938 138.672C196.914 139.521 197.28 140.129 197.5 141.406C196.984 141.535 196.469 141.664 195.938 141.797C195.367 140.763 195.156 140.276 195.156 139.062C195.414 138.934 195.672 138.805 195.938 138.672Z" fill="black"/>
<path id="Vector_44" d="M172.5 136.719C173.257 137.012 173.257 137.012 174.062 137.5C174.355 138.33 174.355 138.33 174.453 139.062C173.937 139.191 173.422 139.32 172.891 139.453C172.109 138.281 172.109 138.281 172.256 137.427C172.336 137.193 172.417 136.959 172.5 136.719Z" fill="black"/>
<path id="Vector_45" d="M183.438 136.328C183.824 136.328 184.211 136.328 184.609 136.328C184.867 137.102 185.125 137.875 185.391 138.672C184.875 138.801 184.359 138.93 183.828 139.062C183.57 138.289 183.312 137.516 183.047 136.719C183.176 136.59 183.305 136.461 183.438 136.328Z" fill="black"/>
<path id="Vector_46" d="M178.75 128.516C179.507 128.809 179.507 128.809 180.312 129.297C180.605 130.127 180.605 130.127 180.703 130.859C180.187 130.988 179.672 131.117 179.141 131.25C178.359 130.078 178.359 130.078 178.506 129.224C178.586 128.99 178.667 128.756 178.75 128.516Z" fill="black"/>
<path id="Vector_47" d="M151.406 125.781C152.051 126.297 152.695 126.812 153.359 127.344C153.23 127.73 153.102 128.117 152.969 128.516C152.236 128.418 152.236 128.418 151.406 128.125C150.918 127.319 150.918 127.319 150.625 126.562C150.883 126.305 151.141 126.047 151.406 125.781Z" fill="black"/>
<path id="Vector_48" d="M147.5 123.047C148.281 123.438 149.062 123.828 149.844 124.219C149.715 124.734 149.586 125.25 149.453 125.781C148.501 125.464 148.501 125.464 147.5 125C147.371 124.613 147.242 124.227 147.109 123.828C147.238 123.57 147.367 123.312 147.5 123.047Z" fill="black"/>
<path id="Vector_49" d="M172.5 121.875C173.232 121.973 173.232 121.973 174.062 122.266C174.551 123.071 174.551 123.071 174.844 123.828C174.457 124.086 174.07 124.344 173.672 124.609C173.156 124.094 172.641 123.578 172.109 123.047C172.238 122.66 172.367 122.273 172.5 121.875Z" fill="black"/>
<path id="Vector_50" d="M143.594 120.703C144.546 121.021 144.546 121.021 145.547 121.484C145.676 121.871 145.805 122.258 145.938 122.656C145.809 122.914 145.68 123.172 145.547 123.438C144.595 123.12 144.595 123.12 143.594 122.656C143.465 122.27 143.336 121.883 143.203 121.484C143.332 121.227 143.461 120.969 143.594 120.703Z" fill="black"/>
<path id="Vector_51" d="M152.578 117.969C153.367 118.204 154.149 118.466 154.922 118.75C155.051 119.008 155.18 119.266 155.312 119.531C155.184 119.789 155.055 120.047 154.922 120.312C153.066 119.971 153.066 119.971 152.188 119.531C152.316 119.016 152.445 118.5 152.578 117.969Z" fill="black"/>
<path id="Vector_52" d="M135 117.188C136.16 117.381 136.16 117.381 137.344 117.578C137.473 118.094 137.602 118.609 137.734 119.141C137.348 119.334 137.348 119.334 136.953 119.531C135.928 119.165 135.928 119.165 135 118.75C135 118.234 135 117.719 135 117.188Z" fill="black"/>
<path id="Vector_53" d="M165.078 116.406C165.852 116.664 166.625 116.922 167.422 117.188C167.422 117.703 167.422 118.219 167.422 118.75C165.566 118.408 165.566 118.408 164.688 117.969C164.816 117.453 164.945 116.938 165.078 116.406Z" fill="black"/>
<path id="Vector_54" d="M148.281 116.016C149.184 116.273 150.086 116.531 151.016 116.797C150.887 117.312 150.758 117.828 150.625 118.359C148.77 118.066 148.77 118.066 147.891 117.188C148.02 116.801 148.148 116.414 148.281 116.016Z" fill="black"/>
<path id="Vector_55" d="M143.984 114.844C144.887 114.973 145.789 115.102 146.719 115.234C146.59 115.75 146.461 116.266 146.328 116.797C145.168 116.604 145.168 116.604 143.984 116.406C143.984 115.891 143.984 115.375 143.984 114.844Z" fill="black"/>
<path id="Vector_56" d="M134.609 112.891C135.512 113.02 136.414 113.148 137.344 113.281C137.344 113.797 137.344 114.312 137.344 114.844C136.441 114.715 135.539 114.586 134.609 114.453C134.609 113.938 134.609 113.422 134.609 112.891Z" fill="black"/>
<path id="Vector_57" d="M152.188 111.328C153.09 111.457 153.992 111.586 154.922 111.719C154.922 112.234 154.922 112.75 154.922 113.281C154.02 113.152 153.117 113.023 152.188 112.891C152.188 112.375 152.188 111.859 152.188 111.328Z" fill="black"/>
<path id="Vector_58" d="M143.203 109.766C144.105 109.895 145.008 110.023 145.938 110.156C145.938 110.672 145.938 111.188 145.938 111.719C145.035 111.59 144.133 111.461 143.203 111.328C143.203 110.812 143.203 110.297 143.203 109.766Z" fill="black"/>
<path id="Vector_59" d="M136.953 109.375C136.953 109.891 136.953 110.406 136.953 110.938C136.051 111.066 135.148 111.195 134.219 111.328C134.219 110.812 134.219 110.297 134.219 109.766C135.192 109.497 135.929 109.375 136.953 109.375Z" fill="black"/>
<path id="Vector_60" d="M135.391 105.859C135.391 106.375 135.391 106.891 135.391 107.422C134.488 107.551 133.586 107.68 132.656 107.812C132.656 107.297 132.656 106.781 132.656 106.25C133.629 105.982 134.367 105.859 135.391 105.859Z" fill="black"/>
<path id="Vector_61" d="M156.484 105.469C157.387 105.598 158.289 105.727 159.219 105.859C159.219 106.375 159.219 106.891 159.219 107.422C158.316 107.293 157.414 107.164 156.484 107.031C156.484 106.516 156.484 106 156.484 105.469Z" fill="black"/>
<path id="Vector_62" d="M140.078 105.078C140.078 105.594 140.078 106.109 140.078 106.641C139.176 106.77 138.273 106.898 137.344 107.031C137.344 106.516 137.344 106 137.344 105.469C138.306 104.988 139.015 105.05 140.078 105.078Z" fill="black"/>
<path id="Vector_63" d="M151.797 104.688C152.699 104.816 153.602 104.945 154.531 105.078C154.531 105.594 154.531 106.109 154.531 106.641C153.629 106.512 152.727 106.383 151.797 106.25C151.797 105.734 151.797 105.219 151.797 104.688Z" fill="black"/>
<path id="Vector_64" d="M165.859 148.438C166.665 148.608 166.665 148.608 167.422 148.828C167.551 149.473 167.68 150.117 167.812 150.781C167.297 150.91 166.781 151.039 166.25 151.172C165.992 150.398 165.734 149.625 165.469 148.828C165.598 148.699 165.727 148.57 165.859 148.438Z" fill="black"/>
<path id="Vector_65" d="M156.875 112.5C157.648 112.758 158.422 113.016 159.219 113.281C159.219 113.797 159.219 114.312 159.219 114.844C158.059 114.65 158.059 114.65 156.875 114.453C156.746 114.066 156.617 113.68 156.484 113.281C156.613 113.023 156.742 112.766 156.875 112.5Z" fill="black"/>
<path id="Vector_66" d="M147.109 104.688C148.012 104.688 148.914 104.688 149.844 104.688C149.844 105.203 149.844 105.719 149.844 106.25C148.941 106.25 148.039 106.25 147.109 106.25C147.109 105.734 147.109 105.219 147.109 104.688Z" fill="black"/>
<path id="Vector_67" d="M142.031 104.688C142.934 104.688 143.836 104.688 144.766 104.688C144.766 105.203 144.766 105.719 144.766 106.25C143.863 106.25 142.961 106.25 142.031 106.25C142.031 105.734 142.031 105.219 142.031 104.688Z" fill="black"/>
<path id="Vector_68" d="M147.891 110.547C148.664 110.547 149.438 110.547 150.234 110.547C150.363 110.934 150.492 111.32 150.625 111.719C150.367 111.977 150.109 112.234 149.844 112.5C148.818 112.354 148.818 112.354 147.891 112.109C147.891 111.594 147.891 111.078 147.891 110.547Z" fill="black"/>
<path id="Vector_69" d="M138.906 109.375C140.066 109.568 140.066 109.568 141.25 109.766C141.25 110.281 141.25 110.797 141.25 111.328C140.348 111.199 139.445 111.07 138.516 110.938C138.645 110.422 138.773 109.906 138.906 109.375Z" fill="black"/>
<path id="Vector_70" d="M169.375 157.031C169.375 157.676 169.375 158.32 169.375 158.984C168.859 158.984 168.344 158.984 167.812 158.984C167.812 158.469 167.812 157.953 167.812 157.422C168.984 157.031 168.984 157.031 169.375 157.031Z" fill="black"/>
<path id="Vector_71" d="M198.281 142.969C198.539 143.484 198.797 144 199.062 144.531C198.547 144.66 198.031 144.789 197.5 144.922C197.371 144.406 197.242 143.891 197.109 143.359C197.496 143.23 197.883 143.102 198.281 142.969Z" fill="black"/>
<path id="Vector_72" d="M185 140.625C185.516 140.625 186.031 140.625 186.562 140.625C186.691 141.012 186.82 141.398 186.953 141.797C186.309 141.926 185.664 142.055 185 142.188C185 141.672 185 141.156 185 140.625Z" fill="black"/>
<path id="Vector_73" d="M131.875 116.406C132.391 116.406 132.906 116.406 133.438 116.406C133.309 116.922 133.18 117.438 133.047 117.969C132.531 117.969 132.016 117.969 131.484 117.969C131.613 117.453 131.742 116.938 131.875 116.406Z" fill="black"/>
<path id="Vector_74" d="M131.094 112.891C131.738 112.891 132.383 112.891 133.047 112.891C132.918 113.406 132.789 113.922 132.656 114.453C132.141 114.324 131.625 114.195 131.094 114.062C131.094 113.676 131.094 113.289 131.094 112.891Z" fill="black"/>
<path id="Vector_75" d="M130.703 109.766C131.219 109.766 131.734 109.766 132.266 109.766C132.266 110.281 132.266 110.797 132.266 111.328C131.75 111.457 131.234 111.586 130.703 111.719C130.703 111.074 130.703 110.43 130.703 109.766Z" fill="black"/>
<path id="Vector_76" d="M177.578 149.609C177.965 149.609 178.352 149.609 178.75 149.609C178.879 150.125 179.008 150.641 179.141 151.172C178.496 151.043 177.852 150.914 177.188 150.781C177.316 150.395 177.445 150.008 177.578 149.609Z" fill="black"/>
<path id="Vector_77" d="M130.703 107.031C130.574 107.676 130.445 108.32 130.312 108.984C129.926 108.855 129.539 108.727 129.141 108.594C129.141 108.207 129.141 107.82 129.141 107.422C129.922 107.031 129.922 107.031 130.703 107.031Z" fill="black"/>
</g>
<defs>
<clipPath id="clip0_1_180">
<rect width="200" height="200" fill="white" transform="translate(0.625)"/>
</clipPath>
</defs>
</svg>
