<svg width="201" height="200" viewBox="0 0 201 200" fill="none" xmlns="http://www.w3.org/2000/svg">
<g id="Frame" clip-path="url(#clip0_1_150)">
<path id="Vector" d="M66.1406 105.469C67.9438 106.86 69.6218 108.396 71.3066 109.926C72.2454 110.767 73.2169 111.562 74.1972 112.354C76.8424 114.498 79.4313 116.707 82.0257 118.913C84.5484 121.056 87.0839 123.179 89.6513 125.269C91.0938 126.455 92.5161 127.663 93.939 128.873C95.2736 130.005 96.6191 131.122 97.9765 132.227C100.189 134.029 102.366 135.872 104.54 137.72C105.225 138.3 105.912 138.878 106.599 139.455C106.827 139.647 107.056 139.838 107.291 140.036C107.725 140.402 108.161 140.767 108.596 141.131C111.717 143.76 111.717 143.76 112.234 145.313C110.593 145.85 108.948 146.376 107.303 146.899C106.838 147.052 106.373 147.204 105.894 147.361C105.444 147.503 104.993 147.645 104.529 147.792C103.909 147.992 103.909 147.992 103.276 148.195C101.945 148.464 101.044 148.385 99.7343 148.047C98.802 147.363 98.802 147.363 97.9033 146.484C96.5635 145.216 95.214 144.004 93.7773 142.847C92.0919 141.483 90.4386 140.088 88.7968 138.672C86.8397 136.986 84.8597 135.333 82.8535 133.705C81.6157 132.69 80.3964 131.654 79.1777 130.615C77.2181 128.947 75.2241 127.335 73.1718 125.781C73.1099 126.083 73.048 126.385 72.9841 126.697C72.2748 129.863 71.406 132.235 69.0947 134.546C67.9628 135.236 67.0617 135.425 65.75 135.547C65.3602 133.553 65.2617 131.604 65.1915 129.581C65.1627 128.873 65.1337 128.165 65.1045 127.457C65.0602 126.35 65.0175 125.244 64.9788 124.137C64.9405 123.062 64.8956 121.988 64.8497 120.914C64.8399 120.587 64.8301 120.26 64.8199 119.923C64.6987 117.269 64.2088 115.06 62.5029 112.939C60.8095 111.601 59.4539 111.236 57.3271 111.401C55.849 111.622 54.7995 111.897 53.6406 112.891C51.1989 116.35 51.6737 120.051 51.8919 124.12C51.918 124.642 51.9439 125.165 51.9696 125.687C52.0377 127.06 52.1091 128.432 52.1811 129.804C52.2385 130.907 52.2936 132.01 52.3486 133.113C52.4155 134.453 52.4833 135.792 52.5511 137.132C52.5642 137.392 52.5773 137.652 52.5908 137.92C52.7131 140.336 52.8374 142.751 53.0138 145.165C53.0469 145.632 53.0469 145.632 53.0806 146.108C53.1375 146.885 53.2 147.661 53.2631 148.438C53.2499 149.611 53.0974 150.197 52.4687 151.172C52.8136 151.082 53.1584 150.993 53.5137 150.9C55.1148 150.754 55.5611 151.066 56.8419 152C57.2156 152.268 57.5892 152.535 57.9743 152.81C58.5603 153.244 58.5603 153.244 59.1582 153.687C59.9718 154.271 60.7856 154.856 61.5996 155.44C61.9848 155.72 62.37 155.999 62.7669 156.288C63.8922 157.1 65.0302 157.879 66.1894 158.643C66.5268 158.866 66.8641 159.09 67.2117 159.32C67.9645 159.815 68.7177 160.309 69.472 160.801C70.6091 161.544 71.744 162.291 72.8789 163.037C73.252 163.279 73.6252 163.522 74.0097 163.771C74.3556 163.999 74.7015 164.227 75.0578 164.462C75.3716 164.667 75.6855 164.873 76.0088 165.084C76.2328 165.262 76.4567 165.441 76.6875 165.625C76.6875 165.883 76.6875 166.141 76.6875 166.406C75.8668 166.8 75.0446 167.19 74.2216 167.578C73.7639 167.796 73.3062 168.013 72.8346 168.237C71.6093 168.75 71.6093 168.75 70.4375 168.75C70.6791 169.051 70.9208 169.351 71.1699 169.661C72.214 171.239 72.85 172.69 72.7812 174.609C71.6337 177.907 69.4264 180.829 67.4866 183.71C66.5115 185.169 65.6051 186.663 64.7108 188.173C64.564 188.42 64.4171 188.667 64.2658 188.922C63.9746 189.413 63.6835 189.904 63.3926 190.395C58.2594 199.055 58.2594 199.055 55.2031 200C52.195 200.311 49.8087 200.352 47.3906 198.438C45.5487 196.635 44.6447 194.92 44.4609 192.358C44.6012 187.996 47.9507 183.877 50.1738 180.273C50.4662 179.796 50.7583 179.319 51.0503 178.842C51.4905 178.122 51.9308 177.402 52.3718 176.683C53.7284 174.47 55.0665 172.247 56.3994 170.02C56.5971 169.689 56.7948 169.359 56.9985 169.019C57.4419 168.279 57.8851 167.538 58.3281 166.797C57.9168 166.927 57.5056 167.057 57.0819 167.191C55.5342 167.679 53.9836 168.157 52.432 168.633C51.7649 168.839 51.0986 169.047 50.4331 169.258C43.3144 171.512 37.9537 171.738 31.1064 168.286C26.96 165.943 22.9278 162.471 21.4018 157.811C20.7865 155.191 21.2171 152.777 22.3906 150.391C24.1774 147.632 26.5425 145.475 28.9717 143.3C36.315 136.708 41.4093 129.402 44.055 119.83C44.1549 119.471 44.2548 119.111 44.3577 118.74C44.5511 118.035 44.7397 117.328 44.9227 116.62C46.172 111.993 48.6169 108.17 52.754 105.583C56.9561 103.429 61.9902 102.849 66.1406 105.469Z" fill="black"/>
<path id="Vector_2" d="M95.3399 79.7363C97.6701 81.681 99.8595 84.2206 100.613 87.207C101.237 89.1783 102.982 89.7679 104.707 90.686C108.205 92.6583 112.185 95.8036 113.797 99.6094C113.968 101.001 113.968 101.001 113.797 102.344C112.715 103.392 111.943 103.505 110.452 103.662C102.51 103.278 94.1141 97.9542 88.9007 92.2241C88.4623 91.7019 88.0408 91.1655 87.6251 90.625C89.426 95.571 94.3029 99.8417 98.5626 102.734C97.0745 106.075 94.0651 108.085 90.7501 109.375C86.2183 110.9 80.999 110.704 76.6876 108.594C75.5419 107.908 74.5547 107.141 73.5626 106.25C73.2083 105.949 73.2083 105.949 72.8469 105.643C69.5868 102.674 67.9669 98.8594 67.6055 94.5343C67.4065 89.3473 68.9083 85.1091 72.3907 81.25C78.8317 75.1173 88.0907 74.5813 95.3399 79.7363ZM86.8438 89.4531C87.2345 90.2344 87.2345 90.2344 87.2345 90.2344L86.8438 89.4531Z" fill="black"/>
<path id="Vector_3" d="M166.531 150.391C167.776 153.399 167.927 156.134 167.703 159.375C167.574 159.633 167.445 159.891 167.312 160.156C170.277 160.156 173.242 160.156 176.297 160.156C176.323 164.146 176.345 168.136 176.358 172.126C176.364 173.978 176.372 175.831 176.385 177.684C176.398 179.472 176.405 181.26 176.408 183.048C176.41 183.73 176.414 184.412 176.421 185.094C176.429 186.05 176.43 187.005 176.43 187.961C176.434 188.243 176.438 188.524 176.443 188.814C176.432 190.526 176.177 191.608 175.125 192.969C174.201 193.431 173.625 193.416 172.594 193.429C172.051 193.436 172.051 193.436 171.496 193.444C171.103 193.447 170.711 193.449 170.306 193.452C169.903 193.456 169.501 193.459 169.086 193.462C168.233 193.467 167.38 193.472 166.527 193.475C165.221 193.481 163.915 193.499 162.61 193.516C161.782 193.52 160.954 193.523 160.126 193.526C159.734 193.533 159.343 193.539 158.94 193.546C158.576 193.545 158.211 193.544 157.835 193.543C157.514 193.545 157.194 193.548 156.864 193.55C155.594 193.275 155.168 192.858 154.422 191.797C154.276 190.716 154.224 189.794 154.244 188.715C154.244 188.406 154.244 188.097 154.244 187.779C154.245 186.76 154.257 185.742 154.269 184.723C154.272 184.016 154.274 183.309 154.276 182.601C154.282 180.742 154.297 178.882 154.315 177.022C154.33 175.124 154.338 173.226 154.345 171.327C154.362 167.603 154.39 163.88 154.422 160.156C157.773 160.156 161.125 160.156 164.578 160.156C164.705 155.6 164.705 155.6 163.797 151.172C164.831 150.601 165.318 150.391 166.531 150.391Z" fill="#BB8A52"/>
<path id="Vector_4" d="M59.8905 112.5C61.6518 113.381 62.5486 114.26 63.4062 116.016C63.5433 117.247 63.5433 117.247 63.5339 118.648C63.5346 119.181 63.5356 119.713 63.5367 120.246C63.5354 120.526 63.5342 120.806 63.5329 121.095C63.5328 122.598 63.5727 124.1 63.6068 125.602C63.6492 127.506 63.6798 129.408 63.6582 131.313C63.3747 138.289 63.3747 138.289 65.8812 144.527C68.0655 146.48 70.5026 147.785 73.1466 149.012C75.0895 149.982 76.7977 151.256 78.5429 152.539C79.1783 152.989 79.8145 153.438 80.4518 153.885C80.744 154.09 81.0363 154.296 81.3373 154.508C82.4536 155.285 83.5842 156.038 84.7197 156.787C86.2287 157.788 87.7295 158.799 89.2118 159.839C89.7262 160.198 89.7262 160.198 90.251 160.564C91.4887 161.627 92.1761 162.624 92.5093 164.23C92.5645 166.536 92.1953 167.744 90.5958 169.423C89.3039 170.451 87.8431 170.494 86.2568 170.471C84.3847 170.167 83.0048 169.037 81.497 167.944C81.1435 167.698 80.79 167.452 80.4257 167.199C79.6802 166.68 78.9369 166.158 78.1958 165.632C76.766 164.624 75.3192 163.642 73.8707 162.66C72.7995 161.934 71.7311 161.205 70.6633 160.474C69.1719 159.453 67.6785 158.436 66.1833 157.422C54.7195 149.64 54.7195 149.64 54.2044 147.559C54.0171 146.397 53.9356 145.266 53.8793 144.09C53.8558 143.615 53.8324 143.141 53.8082 142.651C53.7846 142.14 53.761 141.629 53.7367 141.103C53.7111 140.567 53.6853 140.031 53.6595 139.495C53.6057 138.371 53.553 137.247 53.501 136.123C53.4351 134.698 53.3667 133.274 53.2974 131.849C53.2439 130.741 53.1916 129.632 53.1396 128.524C53.1031 127.748 53.0655 126.972 53.0279 126.197C52.9621 124.756 52.9073 123.316 52.8593 121.875C52.8408 121.381 52.8223 120.887 52.8032 120.377C52.7926 119.897 52.7819 119.417 52.7709 118.922C52.7538 118.28 52.7538 118.28 52.7363 117.626C52.9324 115.681 53.6171 114.437 55.0566 113.135C56.7422 112.323 58.0522 112.174 59.8905 112.5Z" fill="black"/>
<path id="Vector_5" d="M117.218 145.891C117.501 145.889 117.785 145.887 118.077 145.885C120.438 145.947 122.15 146.61 124.124 147.876C125.13 149.445 125.079 150.933 124.734 152.734C122.764 157.098 118.792 159.843 114.749 162.085C113.916 162.557 113.084 163.029 112.251 163.501C111.849 163.728 111.446 163.955 111.031 164.189C110.017 164.771 109.021 165.371 108.031 165.991C107.763 166.158 107.495 166.326 107.219 166.498C106.736 166.802 106.254 167.11 105.776 167.422C104.917 167.957 104.251 168.353 103.226 168.384C102.072 167.751 101.273 166.823 100.418 165.845C100.239 165.648 100.059 165.451 99.8748 165.249C98.5625 163.778 98.5625 163.778 98.5625 162.891C98.2896 163.003 98.0167 163.116 97.7355 163.232C97.38 163.377 97.0245 163.522 96.6582 163.672C96.3047 163.817 95.9512 163.962 95.587 164.111C94.6562 164.453 94.6562 164.453 93.875 164.453C92.7031 161.865 92.7031 161.865 92.7031 160.547C93.8633 160.031 95.0234 159.516 96.2188 158.984C96.0898 156.535 95.9609 154.086 95.8281 151.562C98.8557 150.427 101.89 149.416 104.978 148.466C105.61 148.27 106.242 148.07 106.872 147.865C110.322 146.749 113.573 145.909 117.218 145.891Z" fill="black"/>
<path id="Vector_6" d="M68.875 82.4219C69.1841 83.3176 69.3305 83.8049 69.0032 84.7107C68.8642 84.9544 68.7252 85.1981 68.582 85.4492C67.9852 86.534 67.5605 87.5336 67.2148 88.7207C66.7523 89.9938 66.2561 90.5348 65.1381 91.2857C63.2131 92.6671 61.6478 94.3148 60.0127 96.0205C55.8112 100.315 51.8562 103.925 45.6267 104.306C42.4444 104.285 39.5775 103.526 37.1138 101.463C35.5305 99.8288 34.5 98.3978 34.5 96.0938C35.4965 96.2783 36.0814 96.4979 36.917 97.0947C38.7792 98.0465 40.4783 97.9825 42.462 97.3679C46.4041 95.625 49.5018 92.2343 52.249 88.9984C56.7339 83.7287 61.9294 81.3997 68.875 82.4219Z" fill="black"/>
<path id="Vector_7" d="M131.796 175.038C132.547 175.391 132.547 175.391 132.956 176.146C133.918 179.572 134.115 182.552 132.938 185.938C133.34 185.978 133.743 186.018 134.158 186.06C135.672 186.328 135.672 186.328 136.722 186.865C138.299 187.639 139.858 187.972 141.569 188.342C142.77 188.691 143.65 189.103 144.656 189.844C144.974 191.089 144.974 191.089 145.047 192.188C143.233 192.881 141.528 193.142 139.603 193.237C139.312 193.253 139.021 193.27 138.721 193.286C136.348 193.395 134.032 193.243 131.665 193.04C130.125 192.965 128.634 193.055 127.103 193.188C123.97 193.432 119.802 193.627 116.922 192.188C116.946 191.113 116.946 191.113 117.312 189.844C119.23 188.352 121.272 187.925 123.614 187.393C124.566 187.152 125.367 186.869 126.248 186.45C127.54 185.908 128.427 185.836 129.812 185.938C130.848 182.313 130.648 179.422 129.812 175.781C130.984 175 130.984 175 131.796 175.038Z" fill="#BB8A52"/>
<path id="Vector_8" d="M118.484 165.234C122.242 165.018 125.879 165.672 128.813 168.149C130.009 169.329 130.531 170.204 130.74 171.875C130.538 173.49 130.031 174.504 128.763 175.537C127.024 176.007 125.542 175.752 123.933 175.032C121.238 173.331 120.003 170.456 118.875 167.578C118.605 166.235 118.605 166.235 118.484 165.234Z" fill="#0C3E2E"/>
<path id="Vector_9" d="M179.032 142.187C178.08 146.111 176.605 149.617 173.151 151.929C172.071 152.519 171.283 152.761 170.047 152.734C168.517 152.224 167.865 151.797 166.947 150.464C166.458 148.999 166.435 148.337 166.922 146.875C168.615 144.31 170.793 143.219 173.734 142.48C175.516 142.126 177.219 142.13 179.032 142.187Z" fill="#0C3E2E"/>
<path id="Vector_10" d="M152.469 140.625C156.022 140.42 159.849 140.99 162.625 143.359C163.919 144.597 164.7 145.494 164.798 147.29C164.558 148.969 164.218 149.614 163.016 150.781C161.755 151.412 160.904 151.328 159.5 151.172C156.378 150.058 155.19 147.662 153.826 144.854C153.182 143.456 152.684 142.162 152.469 140.625Z" fill="#0C3E2E"/>
<path id="Vector_11" d="M144.657 166.797C143.908 171.085 142.326 173.945 138.797 176.562C137.547 177.188 136.248 177.148 134.891 176.953C133.793 176.252 133.13 175.774 132.547 174.609C132.327 173.231 132.309 172.277 133.034 171.056C134.905 168.744 136.959 167.753 139.749 166.895C141.383 166.735 143.017 166.768 144.657 166.797Z" fill="#0C3E2E"/>
<path id="Vector_12" d="M25.3193 15.6251C26.6865 16.3575 26.6865 16.3575 27.6631 17.1876C27.6631 17.4454 27.6631 17.7032 27.6631 17.9689C27.3368 17.9772 27.3368 17.9772 27.0039 17.9856C23.6751 18.1937 21.682 19.4867 19.4844 21.9483C18.8548 22.6983 18.3351 23.3437 17.8975 24.2189C17.6754 24.1433 17.4533 24.0678 17.2245 23.99C12.9977 22.5646 10.0307 21.6513 5.78809 23.4376C5.8635 21.8162 6.07844 21.2013 7.2041 19.9952C8.42191 18.9557 9.6905 18.8642 11.2568 18.7501C12.7202 18.9683 12.7202 18.9683 14.1621 19.3116C14.8865 19.4801 14.8865 19.4801 15.6254 19.6519C15.9885 19.741 16.3515 19.8302 16.7256 19.922C16.9995 19.5675 17.2734 19.213 17.5557 18.8478C19.6113 16.3775 22.0892 15.1689 25.3193 15.6251Z" fill="#FFBA00"/>
<path id="Vector_13" d="M51.1006 0.000154972C52.0202 0.567287 52.4081 1.06281 53.0537 1.95328C52.7989 1.99155 52.5441 2.02982 52.2816 2.06925C48.6483 2.69087 46.5024 4.32866 44.0693 7.0314C43.8115 7.41812 43.5537 7.80484 43.2881 8.20328C42.0282 8.00006 40.9103 7.65396 39.7236 7.2023C37.1468 6.32903 34.6163 6.19584 32.082 7.22672C31.7839 7.42008 31.4858 7.61344 31.1787 7.81265C31.2869 6.26185 31.4783 5.57676 32.4971 4.37027C33.927 3.17868 35.0426 3.01989 36.8794 3.0336C38.6793 3.20891 40.3938 3.76512 42.1162 4.29703C42.2909 4.08504 42.4657 3.87305 42.6457 3.65463C45.166 0.672122 47.0482 -0.680304 51.1006 0.000154972Z" fill="#FFBA00"/>
<path id="Vector_14" d="M47.1943 25.0001C48.1517 25.5584 48.7524 26.1479 49.5381 26.9532C49.5381 27.0821 49.5381 27.211 49.5381 27.3439C49.0305 27.36 48.5229 27.3761 48 27.3927C45.3226 27.7037 43.4428 29.0199 41.6783 31.0151C41.0166 31.8592 40.3822 32.7117 39.7725 33.5939C39.5504 33.5183 39.3283 33.4428 39.0995 33.365C34.8727 31.9396 31.9057 31.0263 27.6631 32.8126C27.7341 31.2858 27.9816 30.561 28.9326 29.3458C30.8167 27.9305 33.2511 28.3022 35.4756 28.5157C36.5619 28.7084 37.5455 28.966 38.6006 29.297C38.802 29.015 39.0034 28.733 39.2109 28.4425C41.3304 25.997 43.8351 24.4118 47.1943 25.0001Z" fill="#FFBA00"/>
<path id="Vector_15" d="M80.8135 145.776C82.7658 147.24 83.9357 148.773 84.5 151.172C84.5571 152.224 84.5364 153.242 84.5 154.297C82.6209 154.297 81.7499 153.624 80.2764 152.588C79.7567 152.231 79.2369 151.874 78.7169 151.517C78.4492 151.332 78.1814 151.146 77.9055 150.956C77.0745 150.388 76.2349 149.836 75.3905 149.289C75.121 149.113 74.8515 148.938 74.5739 148.757C74.0521 148.418 73.5291 148.08 73.0051 147.744C72.3959 147.344 71.8051 146.917 71.2188 146.484C71.2188 146.227 71.2188 145.969 71.2188 145.703C74.2138 144.589 77.966 144.081 80.8135 145.776Z" fill="black"/>
<path id="Vector_16" d="M167.703 132.812C169.421 134.218 169.675 136.157 169.949 138.257C170.091 139.998 169.981 141.343 169.266 142.969C168.415 143.969 167.861 144.479 166.531 144.606C165.148 144.522 164.405 144.345 163.382 143.384C162.732 141.26 162.891 139.311 163.89 137.315C164.984 135.622 166.216 134.169 167.703 132.812Z" fill="#0C3E2E"/>
<path id="Vector_17" d="M134.5 158.203C135.716 161.07 136.334 164.169 135.429 167.226C135.086 167.871 135.086 167.871 134.109 168.75C132.553 169.152 131.394 168.986 130.008 168.188C129.112 166.658 129.062 165.399 129.422 163.672C130.386 161.548 131.909 158.203 134.5 158.203Z" fill="#0C3E2E"/>
<path id="Vector_18" d="M79.4219 167.578C80.2189 168.074 81.004 168.592 81.7656 169.141C81.375 170.313 81.375 170.313 80.6976 170.732C80.4101 170.857 80.1225 170.982 79.8262 171.111C79.5138 171.248 79.2013 171.385 78.8794 171.526C78.3866 171.735 78.3866 171.735 77.8838 171.948C77.5567 172.092 77.2297 172.236 76.8927 172.384C74.463 173.438 74.463 173.438 73.5625 173.438C72.3906 170.85 72.3906 170.85 72.3906 169.531C73.193 169.126 73.9995 168.729 74.8076 168.335C75.2563 168.113 75.7049 167.891 76.1672 167.662C77.5377 167.162 78.0712 167.097 79.4219 167.578Z" fill="black"/>
</g>
<defs>
<clipPath id="clip0_1_150">
<rect width="200" height="200" fill="white" transform="translate(0.125)"/>
</clipPath>
</defs>
</svg>
